<svg version="1.1" id="Layer_1" xmlns="http://www.w3.org/2000/svg" x="0" y="0" viewBox="0 0 32 32" style="enable-background:new 0 0 32 32" xml:space="preserve"><style>.st0{fill:#ffb700}</style><path class="st0" d="M4 4h24c2.2 0 4 1.8 4 4v16c0 2.2-1.8 4-4 4H4c-2.2 0-4-1.8-4-4V8c0-2.2 1.8-4 4-4z"/><path d="M1.3 16 5.7 5.3h4.4v21.3H5.7L1.3 16z" style="fill:#ff5b00"/><path d="M1.3 5.3h4.4v21.3H1.3V5.3z" style="fill:#005641"/><path d="M11.5 5.3h19.3v21.3H11.5V5.3z" style="fill:#8d2029"/><path class="st0" d="M29 24.4s.2.4.4.5c.3.2.9.2 1.2.5.3.3 0 .7 0 .8v.2h-.3c-.1 0-.2.1-.4.1-.6 0-.6-.6-.6-1.1 0-.2-.1-.4-.1-.6-.2-.1-.2-.4-.2-.4zM29 7.6s.2-.4.4-.5c.3-.2.9-.2 1.2-.5.3-.3 0-.7 0-.8v-.2h-.3c-.1 0-.2-.1-.4-.1-.6 0-.6.6-.6 1.1 0 .2-.1.4-.1.6-.2.1-.2.4-.2.4zM13.3 24.4s-.2.4-.4.5c-.3.2-.9.2-1.2.5-.3.3 0 .7 0 .8v.2h.3c.1 0 .2.1.4.1.6 0 .6-.6.6-1.1 0-.2.1-.4.1-.6.2-.2.2-.4.2-.4zM13.3 7.6s-.2-.4-.4-.5c-.3-.2-.9-.2-1.2-.5-.3-.3 0-.7 0-.8v-.2h.3c.1 0 .2-.1.4-.1.6 0 .6.6.6 1.1 0 .2.1.4.1.6.2.2.2.4.2.4zM18.2 21l.1-.1v.1c.1.1.2.1.4 0l.1-.1.1.1c.1.1.3.1.4 0 .1-.1.1-.1.1 0 0 0 .1.1.2.1.2 0 .2 0 .2-.1.1-.1.1-.2.1-.3v-.3c0-.1 0-.1.2-.2.1 0 .2-.1.3-.1.1 0 .3-.3.3-.3h-.2c-.4 0-.5-.3-.2-.6.4-.6.7-1.3.7-1.7v-.2c.1.2-.1.8-.3 1.3l-.1.2h.1c.1 0 .4-.2.7-.3.9-.4 1.2-.5 1.8-.5.5 0 .7.1 1 .5.2.2.4.3.7.5.7.4.7.5.8 1 0 .5 0 .5-.4.6-.3.1-.5.2-.6.4 0 .1 0 .1.2 0l.1-.1.1.1c.1.1.2.1.4 0l.1-.1.1.1c.1.1.3.1.4-.1h.1c.1.1.4.1.4.1v-.2c-.2-.2-.2-.4-.2-.5 0-.2 0-.3.3-.4.3-.2.3-.4.1-.4-.1 0-.2-.1-.3-.3-.2-.4-.1-.8.1-1.4.2-.4.3-.8.3-1.3 0-.4 0-.4-.1-.6-.1-.1-.1-.3-.2-.4l-.1-.2.2-.1c.5-.4.4-1.2-.2-1.5-.2-.1-.2-.1-.6-.1-.2 0-.5 0-.7.1-.2 0-.5.1-.7.1-.3 0-.4 0-.5-.1-.1-.1-.2-.1-.2-.3-.1 0-.3.2-.3.2h-.1c0-.1-.1-.1-.1-.2 0-.2 0-.3.2-.4l.2-.1-.1-.1c-.2-.1-.5 0-.6.1 0 .1-.1.1-.1.1h-.4c-.2-.2-.2-.6.2-.7.2-.1.3 0 .3.1 0 .2.2-.1.2-.3 0-.1 0-.1.1-.1s.4.2.5.3c.1.2.1.4 0 .6l-.2.1h.1c.2 0 .3-.1.4-.3 0-.1.1-.2.1-.3v-.3c-.1-.1-.1-.2 0-.1.2.1.3.2.4.3.1.1.1.2 0 .3 0 .1-.1.2-.1.2-.1.1-.1.1 0 .1s.3-.1.3-.1.1-.1.1-.2v-.1l.1.1c.1.1.2.3.4.3.2.1.3.1.2 0-.1-.1-.2-.4-.2-.5.2.1.4.3.6.4.3.3.5.3.7.3.3 0 .5-.3.4-.6-.1-.2-.3-.2-.4-.1-.1.1-.1.1-.1.2s0 .1-.1.1-.3-.1-.6-.4c-.5-.4-1-.7-1.6-.9-.4-.1-.8-.1-1.2-.1-.3.1-.7.2-.9.4-.4.4-.4.8 0 1.2l.1.1-.1.1c0 .1-.1.2-.1.3 0 .1 0 .2.1.3 0 .1.1.1.1.1v-.1c0-.1.1-.2.2-.3.1 0 .1 0 .6.1.4.2 1.1.2 1.9 0 .3-.1.7-.1 1 0 .4.2.4.5.2.8-.1.1-.2.2-.6.3-.3.1-.6.1-1 .1-.5 0-.7 0-1 .1-.2.1-.4.1-1.1 0h-.8l.1.1s.1.1.2.1.1 0 0 .1h-.5V15.4c0 .1 0 .1 0 0 0 0-.1 0-.2-.1-.1 0-.2 0-.2-.1H21c0 .1-.3.3-.4.3 0-.1-.1-.3-.1-.4-.1-.1-.1-.2-.1-.3 0-.1 0-.1 0 0 0 0 0 .1-.1.2 0 .1 0 .2-.1.2l-.1.1-.1-.1c0-.1-.1-.2-.2-.2v.1c0 .1-.2.3-.3.3v-.2.1c0 .1-.2.2-.2.2s-.1 0-.1.1c-.1.1-.1.1-.1 0v-.4h-.2c-.2.1-.3.1-.2 0 0 0 .1-.1.1-.2s.1-.2.1-.2v.1s0 .1-.1.1v.1c0 .1-.1.1 0 .1 0 0 .1 0 .2-.1l.2-.1v.4h.1c.1-.1.2-.2.2-.4 0-.1 0-.1.1 0v.2l.1.1.1-.1c0-.1.1-.2.1-.2 0-.1.1-.2.1-.1s.2.3.2.3 0-.1.1-.2c.1-.2.1-.3.2-.3v.1s0 .1.1.3c0 .1.1.2.1.3l.2-.1.2-.2h.1c.1.1.3.1.5.1v-.4h.4l-.1-.1c-.1 0-.2-.1-.2-.1s-.1-.1-.2-.1c-.2 0-.6-.2-.6-.3 0 0 .1 0 .1.1.1.1.3.2.5.2h.1v.5c-.1-.1-.1-.2-.1-.3 0-.1 0-.2-.2-.3-.1-.1-.2-.1-.2-.2l-.1-.1v.1c0 .1 0 .1-.1.1 0 0-.1 0-.1-.1l-.1-.1-.1.1-.1.1-.1-.1c0-.1-.1-.1-.1-.2l-.1-.1.1.1.1.1.1-.1v-.2c0-.1 0-.1 0 0s.1.1.1.2l.1.1.1-.1.1-.1c0 .1.4.4.6.5V14c0-.1 0-.1-.1-.2-.1 0-.1-.1-.2-.2s-.1-.2-.1-.2c0-.1 0-.2-.1-.2v.5-.1l-.2-.2-.1-.1s.1 0 .2.1.2.1.2.1v-.4c0-.1 0-.1.1 0s.1.2.1.3c0 .2.1.2.2.4l.2.2v-.5c0-.6 0-.7-.1-.9l-.1-.1.1-.1c.1-.1.2-.3.2-.4v-.1.1c-.1.1-.2.1-.3.1s-.2 0-.2-.1c-.1-.1-.3-.2-.4-.2h-.1s0 .1-.1.2l-.1.1-.1-.1c-.1-.1-.2-.2-.3-.2-.2-.1-.2-.1-.2.1s-.1.3-.3.1c-.1-.1-.2-.1-.5-.1h-.2V12.2c-.1.1-.2.2-.4.2h-.3s-.2.1-.3.1h-.2v-.1c0-.2-.1-.3-.3-.3-.2 0-.4.2-.3.5v.2l.3.3c.1.1.2.3.3.3 0 .1.1.1.1.1l.1.1v-.1c0-.1 0-.1.1-.1l.1.1h.1v-.2l.1.1c0 .1.1.2.3.4.2.2.3.5.3.6h-.5c-.1 0-.1 0-.1-.1.1-.1.1-.1-.1-.1s-.6-.1-.8-.2c-.2-.1-.2 0-.2.1l-.1.3v.1h.2c.1 0 .2 0 .3-.1h.1v.1l-.1.1h.1c.1 0 .1 0 .2-.1.1 0 .1 0 .2.1s.1.1.2 0c0-.1.1-.1.2.1s.2.3.2.2l.1-.1c.1-.1.2-.1.2.1.1.1-.1.2-.4.4-.3.2-.5.4-.7.6-.2.3-.3.6-.4.9-.1.6.2 1.2.8 1.6.3.2.7.4.7.3-.1-.4-.1-1 0-1.2v.2c-.1.4 0 .7.2 1.4s.2.9-.1 1.1c-.1.1-.2.1-.4.1-.3 0-.3 0-.4.1-.4.3-.5.4-.5.6 0 .1 0 .1.2 0z"/><path class="st0" d="m23 21 .1-.1.1.1c.1.1.2.1.4 0 0-.1.1-.1.1-.1v.1s.1.1.2.1.1 0 .2-.1v-.1l.1.1c.3.2.5 0 .4-.5-.1-.2 0-.4.2-.6.1-.1.2-.3.2-.3 0-.1 0-.1-.2-.1-.1 0-.2 0-.2-.1-.1-.1-.1-.3 0-.4l.1-.1-.2-.1c-.1-.1-.3-.2-.4-.4-.1-.1-.2-.2-.4-.3-.2-.1-.3-.1-.5-.1H23v.2c0 .2.1.4.4.8.3.4.4.5.4 1v.5l-.1.1c-.1.1-.1.1-.4.1-.3 0-.3 0-.4.1-.1.1-.1.2-.2.3v.1c.2-.1.3-.2.3-.2zm-7.1-1.2s0-.1.1-.2c0 0 0-.1.2-.1h.2l-.1-.1c-.1-.1-.1-.2 0-.2s.3-.1.3-.2v-.1c-.1-.1-.2-.1-.2 0s-.1.1-.1 0c-.1-.1-.1-.4 0-.5.1-.1.1-.1 0-.1-.3-.1-.4-.2-.3-.3H16.3c.1-.1 0-.2-.2-.2H16s-.1-.1-.2-.1-.1 0-.1.1-.1.1-.2.1c-.1-.1-.2 0-.2.1s.1.1.2.1.1.1 0 .2l-.1.1.1.1c.1.1.1.4 0 .5h-.1c-.1-.1-.2-.1-.2 0s0 .1.1.2c.1 0 .1.1.2.1s.1.1 0 .2l-.1.1h.2c.1.1.2.2.3.2-.1 0 0 0 0 0z"/><path class="st0" d="M17.8 18.9c.1 0 .4-.3.4-.4l-.2-.2c-.2-.2-.4-.5-.5-.7 0-.1-.2-.3-.6-.7l-.5-.5H16c-.1 0-.1 0 0 .1l.1.1.1-.1c.1-.1.1-.1.2 0 0 0 0 .1-.1.1 0 0-.1.1 0 .1 0 0 0 .1-.1.1-.1.1-.2.2-.1.2s.2-.2.2-.3v-.1c.1 0 .1.1 0 .2l-.1.1s0 .1-.1.1c-.1.1-.2.2-.1.2s.2-.2.2-.3v-.1s.1.1 0 .2v.2c0 .1 0 .2-.1.2 0 0 0 .1.1.1.1.1.1.1.1.4 0 .3 0 .3.1.4 0 .1.1.1.1 0 0 0 .1-.1.2-.1 0 0 .2.1.3.3.2.1.3.3.4.3h.1c.2.2.3.2.3.1zm-1.6-1.3c0-.1-.2-.2-.4-.2s-.2 0-.2.1 0 .1.2.2c.1 0 .4 0 .4-.1z"/><path class="st0" d="M16.4 17.6c.1-.1.1-.2.1-.2-.1 0-.2.1-.2.2-.1.1-.1.1.1 0zm-.2-.2s0-.1-.1-.1c-.2-.1-.4-.1-.5-.1-.1.1 0 .2.1.2h.2c.1.1.3.1.3 0zm0-.3c0-.1 0-.1-.4-.2-.3-.1-.4 0-.3.1 0 .1.1.1.2.1s.2 0 .3.1c.1 0 .2 0 .2-.1zm.2-.2.1-.1c0-.1-.2.1-.2.2-.1 0-.1 0 .1-.1zm-.2 0c0-.1-.1-.1-.4-.2-.2 0-.3 0-.3.1 0 0 .1.1.3.1h.4zm.2-.4c.3-.1.4-.5 0-.6-.1 0-.2 0-.3.1V16.3c0 .1-.5.2-.7.1-.1 0-.1-.1 0-.1s.1-.1.1-.2-.1-.1-.3-.1c-.3.1-.3.4 0 .6.5 0 .9 0 1.2-.1z"/><path class="st0" d="M16.2 16.2s0-.1 0 0c-.1-.1-.1-.2 0-.3.1-.1.1-.2.1-1.3 0-1.9.2-3.2.4-3.6.1-.1.1-.1-.1 0-.2.2-.5.4-.6.7-.3.6-.4 1.3-.4 3 0 .9 0 1.1.1 1.2.1.1.1.1 0 .2v.1c-.1.1.4.1.5 0zm2.8-1.8s0-.1-.1-.2-.1-.1-.2-.1c-.4 0-.8-.1-1.1-.3-.3-.1-.4-.1-.4-.1-.1.1.1.2.2.3.3.1.6.2.9.2.1 0 .1 0 .1.1v.1H19z"/><path d="M20.6 15.3c0-.1-.1-.2-.3-.3-.1-.1-.1-.1-.1 0s-.1.3-.1.3v-.1c0-.1-.1-.2-.1-.2l-.1-.1-.2.1-.2.2V14.9l-.2.2s0-.1-.1-.1v-.2.1l.1.2.1-.1c0-.1.1-.1.1-.2 0 0 0 .1.1.2v.2l.1-.1c0-.1.1-.1.1-.2s0-.1.1 0c0 0 .1.1.1.2s.1.1.1.1v-.4s.3.2.4.2c.1.1.1.2.1.3.1-.1.1-.2.1-.3 0-.1 0-.2-.1-.3-.1-.1-.1-.1-.1 0-.1.1-.1.1-.1 0s-.2-.3-.2-.3l-.1.1c0 .1-.1.1-.1.1-.1 0-.3-.3-.3-.3h.1c0 .1.1.1.2.2s.1.1.2-.1v-.1s.3.2.3.3v.1-.1c0-.1.1-.1.1 0l.2.2.2.1v-.1c0-.1 0-.1.1-.1 0 0 0 .2-.1.3 0 0-.1 0-.1-.1l-.1-.1v.2c-.1.1-.1.2-.2.3.1 0 0 0 0 0zm-.9-1.3c-.2-.2-.2-.2-.2-.3v-.1.1c0 .1.1.1.1.2l.1.1.1-.1c0-.1.1-.1.1-.1 0-.1 0-.1.2.1.1.1.1.1.1 0V13.6l.1.1c0 .1.1.1.1 0V13.4l.1.1c.1.1.1.1.2.1V13.3c0 .1 0 .2-.1.3v.1l-.1-.1c-.1-.1-.1-.1-.2 0 0 .1-.1.1-.1 0s0-.1-.1.1v.1l-.1-.1-.1-.1-.1.1c0 .2 0 .3-.1.3.1 0 0 0 0 0zm1.9-.7c-.1-.1-.1-.1-.1-.2.1.1.1.1.1.2.3.2.2.2 0 0zM19 13c-.1-.1-.1-.2 0-.3.1-.1.1-.1.2-.1s.2.1.3.1c.2.1.4.2.5.1l-.1-.1c-.1-.2-.1-.2 0-.1s.3.1.6.1h.2l-.1-.1c-.1-.1-.1-.1.1 0 .1.1.1.1-.2.2h-.4c-.2-.1-.2 0-.1 0 0 0 0 .1.1.1 0 .1-.4 0-.5-.1-.4-.2-.5-.2-.5-.2H19v.1c0 .3.2.5.3.3v-.1c-.1-.1-.1-.1 0-.1s.1.2 0 .2c-.1.1-.2.1-.3 0z"/><path d="M20.6 12.6c-.1-.1 0-.1.2-.1.3 0 .5 0 .7-.2.2-.1.2-.1 0 0-.1.1-.4.2-.6.2l-.3.1c.1 0 0 0 0 0z"/></svg>