<?xml version="1.0" encoding="utf-8"?>
<!-- Generator: Adobe Illustrator 25.4.1, SVG Export Plug-In . SVG Version: 6.00 Build 0)  -->
<svg version="1.1" id="Layer_1" xmlns="http://www.w3.org/2000/svg" xmlns:xlink="http://www.w3.org/1999/xlink" x="0px" y="0px"
	 viewBox="0 0 32 32" style="enable-background:new 0 0 32 32;" xml:space="preserve">
<style type="text/css">
	.st0{fill:#FFB700;}
	.st1{fill:#FF5B00;}
	.st2{fill:#005641;}
	.st3{fill:#8D2029;}
</style>
<path class="st0" d="M4,4h24c2.2,0,4,1.8,4,4v16c0,2.2-1.8,4-4,4H4c-2.2,0-4-1.8-4-4V8C0,5.8,1.8,4,4,4z"/>
<path class="st1" d="M1.3,16L5.7,5.3h4.4v21.3H5.7L1.3,16z"/>
<path class="st2" d="M1.3,5.3h4.4v21.3H1.3V5.3z"/>
<path class="st3" d="M11.5,5.3h19.3v21.3H11.5V5.3z"/>
<path class="st0" d="M29,24.4c0,0,0.2,0.4,0.4,0.5c0.3,0.2,0.9,0.2,1.2,0.5c0.3,0.3,0,0.7,0,0.8l0,0.2c0,0-0.2,0-0.3,0
	c-0.1,0-0.2,0.1-0.4,0.1c-0.6,0-0.6-0.6-0.6-1.1c0-0.2-0.1-0.4-0.1-0.6C29,24.7,29,24.4,29,24.4z"/>
<path class="st0" d="M29,7.6c0,0,0.2-0.4,0.4-0.5c0.3-0.2,0.9-0.2,1.2-0.5c0.3-0.3,0-0.7,0-0.8l0-0.2c0,0-0.2,0-0.3,0
	c-0.1,0-0.2-0.1-0.4-0.1c-0.6,0-0.6,0.6-0.6,1.1c0,0.2-0.1,0.4-0.1,0.6C29,7.3,29,7.6,29,7.6z"/>
<path class="st0" d="M13.3,24.4c0,0-0.2,0.4-0.4,0.5c-0.3,0.2-0.9,0.2-1.2,0.5c-0.3,0.3,0,0.7,0,0.8l0,0.2c0,0,0.2,0,0.3,0
	c0.1,0,0.2,0.1,0.4,0.1c0.6,0,0.6-0.6,0.6-1.1c0-0.2,0.1-0.4,0.1-0.6C13.3,24.6,13.3,24.4,13.3,24.4z"/>
<path class="st0" d="M13.3,7.6c0,0-0.2-0.4-0.4-0.5c-0.3-0.2-0.9-0.2-1.2-0.5c-0.3-0.3,0-0.7,0-0.8l0-0.2c0,0,0.2,0,0.3,0
	c0.1,0,0.2-0.1,0.4-0.1c0.6,0,0.6,0.6,0.6,1.1c0,0.2,0.1,0.4,0.1,0.6C13.3,7.4,13.3,7.6,13.3,7.6z"/>
<path class="st0" d="M18.2,21l0.1-0.1l0,0.1c0.1,0.1,0.2,0.1,0.4,0l0.1-0.1l0.1,0.1c0.1,0.1,0.3,0.1,0.4,0c0.1-0.1,0.1-0.1,0.1,0
	c0,0,0.1,0.1,0.2,0.1c0.2,0,0.2,0,0.2-0.1c0.1-0.1,0.1-0.2,0.1-0.3c0-0.1,0-0.2,0-0.3c0-0.1,0-0.1,0.2-0.2c0.1,0,0.2-0.1,0.3-0.1
	c0.1,0,0.3-0.3,0.3-0.3c0,0-0.1,0-0.2,0c-0.4,0-0.5-0.3-0.2-0.6c0.4-0.6,0.7-1.3,0.7-1.7c0-0.2,0-0.2,0-0.2c0.1,0.2-0.1,0.8-0.3,1.3
	l-0.1,0.2l0.1,0c0.1,0,0.4-0.2,0.7-0.3c0.9-0.4,1.2-0.5,1.8-0.5c0.5,0,0.7,0.1,1,0.5c0.2,0.2,0.4,0.3,0.7,0.5c0.7,0.4,0.7,0.5,0.8,1
	c0,0.5,0,0.5-0.4,0.6c-0.3,0.1-0.5,0.2-0.6,0.4c0,0.1,0,0.1,0.2,0l0.1-0.1l0.1,0.1c0.1,0.1,0.2,0.1,0.4,0l0.1-0.1l0.1,0.1
	c0.1,0.1,0.3,0.1,0.4-0.1c0,0,0,0,0.1,0c0.1,0.1,0.4,0.1,0.4,0.1c0,0,0-0.1,0-0.2c-0.2-0.2-0.2-0.4-0.2-0.5c0-0.2,0-0.3,0.3-0.4
	c0.3-0.2,0.3-0.4,0.1-0.4c-0.1,0-0.2-0.1-0.3-0.3c-0.2-0.4-0.1-0.8,0.1-1.4c0.2-0.4,0.3-0.8,0.3-1.3c0-0.4,0-0.4-0.1-0.6
	c-0.1-0.1-0.1-0.3-0.2-0.4l-0.1-0.2l0.2-0.1c0.5-0.4,0.4-1.2-0.2-1.5c-0.2-0.1-0.2-0.1-0.6-0.1c-0.2,0-0.5,0-0.7,0.1
	c-0.2,0-0.5,0.1-0.7,0.1c-0.3,0-0.4,0-0.5-0.1c-0.1-0.1-0.2-0.1-0.2-0.3c0,0,0,0,0,0c0,0,0,0,0,0c-0.1,0-0.3,0.2-0.3,0.2
	c0,0,0,0-0.1,0c0-0.1-0.1-0.1-0.1-0.2c0-0.2,0-0.3,0.2-0.4l0.2-0.1l-0.1-0.1c-0.2-0.1-0.5,0-0.6,0.1c0,0.1-0.1,0.1-0.1,0.1
	S22.6,13,22.5,13c-0.2-0.2-0.2-0.6,0.2-0.7c0.2-0.1,0.3,0,0.3,0.1c0,0.2,0.2-0.1,0.2-0.3c0-0.1,0-0.1,0.1-0.1c0.1,0,0.4,0.2,0.5,0.3
	c0.1,0.2,0.1,0.4,0,0.6L23.6,13l0.1,0c0.2,0,0.3-0.1,0.4-0.3c0-0.1,0.1-0.2,0.1-0.3c0-0.1,0-0.2,0-0.3c-0.1-0.1-0.1-0.2,0-0.1
	c0.2,0.1,0.3,0.2,0.4,0.3c0.1,0.1,0.1,0.2,0,0.3c0,0.1-0.1,0.2-0.1,0.2c-0.1,0.1-0.1,0.1,0,0.1c0.1,0,0.3-0.1,0.3-0.1
	c0,0,0.1-0.1,0.1-0.2l0-0.1l0.1,0.1c0.1,0.1,0.2,0.3,0.4,0.3c0.2,0.1,0.3,0.1,0.2,0c-0.1-0.1-0.2-0.4-0.2-0.5
	c0.2,0.1,0.4,0.3,0.6,0.4c0.3,0.3,0.5,0.3,0.7,0.3c0.3,0,0.5-0.3,0.4-0.6c-0.1-0.2-0.3-0.2-0.4-0.1c-0.1,0.1-0.1,0.1-0.1,0.2
	c0,0.1,0,0.1-0.1,0.1c-0.1,0-0.3-0.1-0.6-0.4c-0.5-0.4-1-0.7-1.6-0.9c-0.4-0.1-0.8-0.1-1.2-0.1c-0.3,0.1-0.7,0.2-0.9,0.4
	c-0.4,0.4-0.4,0.8,0,1.2l0.1,0.1l-0.1,0.1c0,0.1-0.1,0.2-0.1,0.3c0,0.1,0,0.2,0.1,0.3c0,0.1,0.1,0.1,0.1,0.1c0,0,0,0,0-0.1
	c0-0.1,0.1-0.2,0.2-0.3c0.1,0,0.1,0,0.6,0.1c0.4,0.2,1.1,0.2,1.9,0c0.3-0.1,0.7-0.1,1,0c0.4,0.2,0.4,0.5,0.2,0.8
	c-0.1,0.1-0.2,0.2-0.6,0.3c-0.3,0.1-0.6,0.1-1,0.1c-0.5,0-0.7,0-1,0.1c-0.2,0.1-0.4,0.1-1.1,0l-0.8,0l0.1,0.1c0,0,0.1,0.1,0.2,0.1
	c0.1,0,0.1,0,0,0.1c-0.1,0-0.2,0-0.3,0h-0.2l0,0.1c0,0.1,0,0.1,0,0.2c0,0.1,0,0.1,0,0c0,0-0.1,0-0.2-0.1c-0.1,0-0.2,0-0.2-0.1
	c-0.1,0-0.1,0-0.1,0c0,0.1-0.3,0.3-0.4,0.3c0-0.1-0.1-0.3-0.1-0.4c-0.1-0.1-0.1-0.2-0.1-0.3c0-0.1,0-0.1,0,0c0,0,0,0.1-0.1,0.2
	c0,0.1,0,0.2-0.1,0.2l-0.1,0.1l-0.1-0.1c0-0.1-0.1-0.2-0.2-0.2c0,0,0,0,0,0.1c0,0.1-0.2,0.3-0.3,0.3c0,0,0-0.1,0-0.1
	c0-0.1,0-0.1,0-0.1c0,0,0,0,0,0.1c0,0.1-0.2,0.2-0.2,0.2c0,0-0.1,0-0.1,0.1c-0.1,0.1-0.1,0.1-0.1,0c0-0.1,0-0.1,0-0.2l0-0.2
	c0,0-0.1,0-0.2,0c-0.2,0.1-0.3,0.1-0.2,0c0,0,0.1-0.1,0.1-0.2c0-0.1,0.1-0.2,0.1-0.2c0,0,0,0,0,0.1c0,0,0,0.1-0.1,0.1
	c0,0,0,0.1,0,0.1c0,0.1-0.1,0.1,0,0.1c0,0,0.1,0,0.2-0.1l0.2-0.1v0.1c0,0,0,0.1,0,0.2l0,0.1l0.1,0c0.1-0.1,0.2-0.2,0.2-0.4
	c0-0.1,0-0.1,0.1,0c0,0,0,0.1,0,0.2l0.1,0.1l0.1-0.1c0-0.1,0.1-0.2,0.1-0.2c0-0.1,0.1-0.2,0.1-0.1c0,0.1,0.2,0.3,0.2,0.3
	c0,0,0-0.1,0.1-0.2c0.1-0.2,0.1-0.3,0.2-0.3c0,0,0,0,0,0.1c0,0,0,0.1,0.1,0.3c0,0.1,0.1,0.2,0.1,0.3c0,0,0,0,0.2-0.1
	c0.1-0.1,0.1-0.1,0.2-0.2c0,0,0,0,0.1,0c0.1,0.1,0.3,0.1,0.5,0.1c0,0,0-0.1,0-0.2l0-0.2l0.1,0c0.1,0,0.2,0,0.2,0l0.1,0l-0.1-0.1
	c-0.1,0-0.2-0.1-0.2-0.1c0,0-0.1-0.1-0.2-0.1c-0.2,0-0.6-0.2-0.6-0.3c0,0,0.1,0,0.1,0.1c0.1,0.1,0.3,0.2,0.5,0.2h0.1L21.7,15
	c-0.1-0.1-0.1-0.2-0.1-0.3c0-0.1,0-0.2-0.2-0.3c-0.1-0.1-0.2-0.1-0.2-0.2l-0.1-0.1l0,0.1c0,0.1,0,0.1-0.1,0.1c0,0-0.1,0-0.1-0.1
	c0,0-0.1-0.1-0.1-0.1c0,0-0.1,0.1-0.1,0.1l-0.1,0.1l-0.1-0.1c0-0.1-0.1-0.1-0.1-0.2c-0.1-0.1-0.1-0.1-0.1-0.1s0.1,0.1,0.1,0.1
	l0.1,0.1l0.1-0.1c0-0.1,0-0.1,0-0.2c0-0.1,0-0.1,0,0c0,0.1,0.1,0.1,0.1,0.2l0.1,0.1l0.1-0.1c0.1-0.1,0.1-0.1,0.1-0.1
	c0,0.1,0.4,0.4,0.6,0.5c0,0,0-0.1,0-0.2c0-0.1,0-0.1,0-0.2c0-0.1,0-0.1-0.1-0.2c-0.1,0-0.1-0.1-0.2-0.2s-0.1-0.2-0.1-0.2
	c0-0.1,0-0.2-0.1-0.2c0,0,0,0,0,0.1c0,0.1,0,0.2,0,0.3l0,0.1l0-0.1c0,0-0.1-0.1-0.2-0.2c-0.1-0.1-0.1-0.1-0.1-0.1s0.1,0,0.2,0.1
	c0.1,0.1,0.2,0.1,0.2,0.1c0-0.1,0-0.3,0-0.4c0-0.1,0-0.1,0.1,0c0.1,0.1,0.1,0.2,0.1,0.3c0,0.2,0.1,0.2,0.2,0.4
	c0.1,0.1,0.2,0.2,0.2,0.2c0,0,0-0.2,0-0.5c0-0.6,0-0.7-0.1-0.9l-0.1-0.1l0.1-0.1c0.1-0.1,0.2-0.3,0.2-0.4l0-0.1L21.9,12
	c-0.1,0.1-0.2,0.1-0.3,0.1s-0.2,0-0.2-0.1c-0.1-0.1-0.3-0.2-0.4-0.2c-0.1,0-0.1,0-0.1,0c0,0,0,0.1-0.1,0.2l-0.1,0.1L20.6,12
	c-0.1-0.1-0.2-0.2-0.3-0.2c-0.2-0.1-0.2-0.1-0.2,0.1c0,0.2-0.1,0.3-0.3,0.1c-0.1-0.1-0.2-0.1-0.5-0.1l-0.2,0l0,0.1
	c0,0.1,0,0.1,0,0.2c-0.1,0.1-0.2,0.2-0.4,0.2c-0.1,0-0.2,0-0.3,0c0,0-0.2,0.1-0.3,0.1c-0.1,0-0.2,0-0.2,0c0,0,0,0,0-0.1
	c0-0.2-0.1-0.3-0.3-0.3c-0.2,0-0.4,0.2-0.3,0.5c0,0.1,0,0.1,0,0.2c0.1,0.1,0.2,0.2,0.3,0.3c0.1,0.1,0.2,0.3,0.3,0.3
	c0,0.1,0.1,0.1,0.1,0.1l0.1,0.1l0-0.1c0-0.1,0-0.1,0.1-0.1c0,0,0.1,0.1,0.1,0.1c0.1,0,0.1,0,0.1,0c0,0,0-0.1,0-0.1l0-0.1l0.1,0.1
	c0,0.1,0.1,0.2,0.3,0.4c0.2,0.2,0.3,0.5,0.3,0.6c0,0-0.1,0-0.2,0c-0.1,0-0.2,0-0.3,0c-0.1,0-0.1,0-0.1-0.1c0.1-0.1,0.1-0.1-0.1-0.1
	c-0.2,0-0.6-0.1-0.8-0.2c-0.2-0.1-0.2,0-0.2,0.1l-0.1,0.3l0,0.1l0.2,0c0.1,0,0.2,0,0.3-0.1c0,0,0.1,0,0.1,0c0,0,0,0.1,0,0.1
	l-0.1,0.1l0.1,0c0.1,0,0.1,0,0.2-0.1c0.1,0,0.1,0,0.2,0.1c0.1,0.1,0.1,0.1,0.2,0c0-0.1,0.1-0.1,0.2,0.1c0.1,0.2,0.2,0.3,0.2,0.2
	c0,0,0.1-0.1,0.1-0.1c0.1-0.1,0.2-0.1,0.2,0.1c0.1,0.1-0.1,0.2-0.4,0.4c-0.3,0.2-0.5,0.4-0.7,0.6c-0.2,0.3-0.3,0.6-0.4,0.9
	c-0.1,0.6,0.2,1.2,0.8,1.6c0.3,0.2,0.7,0.4,0.7,0.3c-0.1-0.4-0.1-1,0-1.2c0,0,0,0,0,0.2c-0.1,0.4,0,0.7,0.2,1.4
	c0.2,0.7,0.2,0.9-0.1,1.1c-0.1,0.1-0.2,0.1-0.4,0.1c-0.3,0-0.3,0-0.4,0.1C18.1,20.7,18,20.8,18,21C18,21.1,18,21.1,18.2,21L18.2,21z
	"/>
<path class="st0" d="M23,21l0.1-0.1l0.1,0.1c0.1,0.1,0.2,0.1,0.4,0c0-0.1,0.1-0.1,0.1-0.1l0,0.1c0,0,0.1,0.1,0.2,0.1
	c0.1,0,0.1,0,0.2-0.1l0-0.1l0.1,0.1c0.3,0.2,0.5,0,0.4-0.5c-0.1-0.2,0-0.4,0.2-0.6c0.1-0.1,0.2-0.3,0.2-0.3c0-0.1,0-0.1-0.2-0.1
	c-0.1,0-0.2,0-0.2-0.1c-0.1-0.1-0.1-0.3,0-0.4l0.1-0.1l-0.2-0.1c-0.1-0.1-0.3-0.2-0.4-0.4c-0.1-0.1-0.2-0.2-0.4-0.3
	c-0.2-0.1-0.3-0.1-0.5-0.1l-0.2,0v0.2c0,0.2,0.1,0.4,0.4,0.8c0.3,0.4,0.4,0.5,0.4,1l0,0.5l-0.1,0.1c-0.1,0.1-0.1,0.1-0.4,0.1
	c-0.3,0-0.3,0-0.4,0.1c-0.1,0.1-0.1,0.2-0.2,0.3c0,0.1,0,0.1,0,0.1C22.9,21.1,23,21,23,21L23,21z M15.9,19.8c0,0,0-0.1,0.1-0.2
	c0,0,0-0.1,0.2-0.1l0.2,0l-0.1-0.1c-0.1-0.1-0.1-0.2,0-0.2c0.1,0,0.3-0.1,0.3-0.2c0,0,0-0.1,0-0.1c-0.1-0.1-0.2-0.1-0.2,0
	c0,0.1-0.1,0.1-0.1,0c-0.1-0.1-0.1-0.4,0-0.5c0.1-0.1,0.1-0.1,0-0.1C16,18.2,15.9,18.1,16,18c0,0,0.1,0,0.1,0c0.1,0,0.1,0,0.2,0
	c0.1-0.1,0-0.2-0.2-0.2c-0.1,0-0.1,0-0.1,0c0,0-0.1-0.1-0.2-0.1c-0.1,0-0.1,0-0.1,0.1c0,0.1-0.1,0.1-0.2,0.1c-0.1-0.1-0.2,0-0.2,0.1
	c0,0.1,0.1,0.1,0.2,0.1c0.1,0,0.1,0.1,0,0.2l-0.1,0.1l0.1,0.1c0.1,0.1,0.1,0.4,0,0.5L15.5,19L15.4,19c-0.1-0.1-0.2-0.1-0.2,0
	c0,0.1,0,0.1,0.1,0.2c0.1,0,0.1,0.1,0.2,0.1c0.1,0,0.1,0.1,0,0.2l-0.1,0.1l0.1,0c0.1,0,0.1,0,0.1,0C15.7,19.7,15.8,19.8,15.9,19.8
	C15.8,19.8,15.9,19.8,15.9,19.8L15.9,19.8z"/>
<path class="st0" d="M17.8,18.9c0.1,0,0.4-0.3,0.4-0.4c0,0-0.1-0.1-0.2-0.2c-0.2-0.2-0.4-0.5-0.5-0.7c0-0.1-0.2-0.3-0.6-0.7
	l-0.5-0.5l-0.2,0c-0.1,0-0.2,0-0.2,0c-0.1,0-0.1,0,0,0.1l0.1,0.1l0.1-0.1c0.1-0.1,0.1-0.1,0.2,0c0,0,0,0.1-0.1,0.1
	c0,0-0.1,0.1,0,0.1c0,0,0,0.1-0.1,0.1c-0.1,0.1-0.2,0.2-0.1,0.2c0.1,0,0.2-0.2,0.2-0.3c0,0,0-0.1,0-0.1c0.1,0,0.1,0.1,0,0.2
	c0,0-0.1,0.1-0.1,0.1c0,0,0,0.1-0.1,0.1c-0.1,0.1-0.2,0.2-0.1,0.2s0.2-0.2,0.2-0.3c0,0,0-0.1,0-0.1c0,0,0.1,0.1,0,0.2c0,0,0,0,0,0.1
	c0,0,0,0,0,0.1c0,0.1,0,0.2-0.1,0.2c0,0,0,0.1,0.1,0.1c0.1,0.1,0.1,0.1,0.1,0.4c0,0.3,0,0.3,0.1,0.4c0,0.1,0.1,0.1,0.1,0
	c0,0,0.1-0.1,0.2-0.1c0,0,0.2,0.1,0.3,0.3c0.2,0.1,0.3,0.3,0.4,0.3l0.1,0C17.7,19,17.8,19,17.8,18.9L17.8,18.9z M16.2,17.6
	c0-0.1-0.2-0.2-0.4-0.2c-0.2,0-0.2,0-0.2,0.1c0,0.1,0,0.1,0.2,0.2C15.9,17.7,16.2,17.7,16.2,17.6z"/>
<path class="st0" d="M16.4,17.6c0.1-0.1,0.1-0.2,0.1-0.2c-0.1,0-0.2,0.1-0.2,0.2C16.2,17.7,16.2,17.7,16.4,17.6L16.4,17.6z
	 M16.2,17.4c0,0,0-0.1-0.1-0.1c-0.2-0.1-0.4-0.1-0.5-0.1c-0.1,0.1,0,0.2,0.1,0.2c0.1,0,0.2,0,0.2,0C16,17.5,16.2,17.5,16.2,17.4
	L16.2,17.4z M16.2,17.1c0-0.1,0-0.1-0.4-0.2c-0.3-0.1-0.4,0-0.3,0.1c0,0.1,0.1,0.1,0.2,0.1c0.1,0,0.2,0,0.3,0.1
	C16.1,17.2,16.2,17.2,16.2,17.1L16.2,17.1z M16.4,16.9c0.1-0.1,0.1-0.1,0.1-0.1c0-0.1-0.2,0.1-0.2,0.2C16.2,17,16.2,17,16.4,16.9
	L16.4,16.9z M16.2,16.9c0-0.1-0.1-0.1-0.4-0.2c-0.2,0-0.3,0-0.3,0.1c0,0,0.1,0.1,0.3,0.1C16.1,16.9,16.2,16.9,16.2,16.9L16.2,16.9z
	 M16.4,16.5c0.3-0.1,0.4-0.5,0-0.6c-0.1,0-0.2,0-0.3,0.1c0,0.1,0,0.2,0,0.2c0,0,0,0,0,0.1c0,0.1-0.5,0.2-0.7,0.1
	c-0.1,0-0.1-0.1,0-0.1c0.1,0,0.1-0.1,0.1-0.2c0-0.1-0.1-0.1-0.3-0.1c-0.3,0.1-0.3,0.4,0,0.6C15.7,16.6,16.1,16.6,16.4,16.5
	L16.4,16.5z"/>
<path class="st0" d="M16.2,16.2C16.2,16.2,16.2,16.1,16.2,16.2c-0.1-0.1-0.1-0.2,0-0.3c0.1-0.1,0.1-0.2,0.1-1.3
	c0-1.9,0.2-3.2,0.4-3.6c0.1-0.1,0.1-0.1-0.1,0c-0.2,0.2-0.5,0.4-0.6,0.7c-0.3,0.6-0.4,1.3-0.4,3c0,0.9,0,1.1,0.1,1.2
	c0.1,0.1,0.1,0.1,0,0.2c0,0.1,0,0.1,0,0.1C15.6,16.3,16.1,16.3,16.2,16.2z M19,14.4c0,0,0-0.1-0.1-0.2c-0.1-0.1-0.1-0.1-0.2-0.1
	c-0.4,0-0.8-0.1-1.1-0.3c-0.3-0.1-0.4-0.1-0.4-0.1c-0.1,0.1,0.1,0.2,0.2,0.3c0.3,0.1,0.6,0.2,0.9,0.2c0.1,0,0.1,0,0.1,0.1l0,0.1h0.1
	l0.2,0C19,14.4,19,14.4,19,14.4L19,14.4z"/>
<path d="M20.6,15.3c0-0.1-0.1-0.2-0.3-0.3c-0.1-0.1-0.1-0.1-0.1,0c0,0.1-0.1,0.3-0.1,0.3c0,0,0,0,0-0.1c0-0.1-0.1-0.2-0.1-0.2
	l-0.1-0.1L19.7,15c-0.1,0.1-0.2,0.2-0.2,0.2c0,0,0-0.1,0-0.1c0-0.1,0-0.1,0-0.2c0,0,0,0,0,0c0,0-0.2,0.2-0.2,0.2c0,0,0-0.1-0.1-0.1
	l0-0.2c0-0.1,0,0,0,0.1l0.1,0.2l0.1-0.1c0-0.1,0.1-0.1,0.1-0.2c0,0,0,0,0,0c0,0,0,0.1,0.1,0.2l0,0.2l0.1-0.1c0-0.1,0.1-0.1,0.1-0.2
	c0-0.1,0-0.1,0.1,0c0,0,0.1,0.1,0.1,0.2c0,0.1,0.1,0.1,0.1,0.1l0-0.2l0-0.2c0,0,0.3,0.2,0.4,0.2C20.6,15.1,20.6,15.2,20.6,15.3
	c0.1-0.1,0.1-0.2,0.1-0.3c0-0.1,0-0.2-0.1-0.3c-0.1-0.1-0.1-0.1-0.1,0c-0.1,0.1-0.1,0.1-0.1,0c0-0.1-0.2-0.3-0.2-0.3
	c0,0-0.1,0.1-0.1,0.1c0,0.1-0.1,0.1-0.1,0.1c-0.1,0-0.3-0.3-0.3-0.3c0,0,0,0,0.1,0c0,0.1,0.1,0.1,0.2,0.2c0.1,0.1,0.1,0.1,0.2-0.1
	c0-0.1,0-0.1,0-0.1c0,0,0.3,0.2,0.3,0.3l0,0.1l0-0.1c0-0.1,0.1-0.1,0.1,0c0,0,0.1,0.1,0.2,0.2l0.2,0.1l0-0.1c0-0.1,0-0.1,0.1-0.1
	c0,0,0,0.2-0.1,0.3c0,0-0.1,0-0.1-0.1l-0.1-0.1V15C20.7,15.1,20.7,15.2,20.6,15.3C20.7,15.3,20.6,15.3,20.6,15.3L20.6,15.3z
	 M19.7,14c-0.2-0.2-0.2-0.2-0.2-0.3l0-0.1l0,0.1c0,0.1,0.1,0.1,0.1,0.2L19.7,14l0.1-0.1c0-0.1,0.1-0.1,0.1-0.1c0-0.1,0-0.1,0.2,0.1
	c0.1,0.1,0.1,0.1,0.1,0c0,0,0-0.1,0-0.2c0-0.2,0-0.2,0-0.1l0.1,0.1c0,0.1,0.1,0.1,0.1,0c0,0,0-0.1,0-0.2v-0.1l0.1,0.1
	c0.1,0.1,0.1,0.1,0.2,0.1c0,0,0-0.1,0-0.2c0-0.1,0-0.1,0-0.1c0,0.1,0,0.2-0.1,0.3l0,0.1l-0.1-0.1c-0.1-0.1-0.1-0.1-0.2,0
	c0,0.1-0.1,0.1-0.1,0c0-0.1,0-0.1-0.1,0.1l0,0.1l-0.1-0.1l-0.1-0.1l-0.1,0.1C19.8,13.9,19.8,14,19.7,14C19.8,14,19.7,14,19.7,14
	L19.7,14z M21.6,13.3c-0.1-0.1-0.1-0.1-0.1-0.2c0,0,0,0,0,0C21.6,13.2,21.6,13.2,21.6,13.3C21.9,13.5,21.8,13.5,21.6,13.3L21.6,13.3
	z M19,13c-0.1-0.1-0.1-0.2,0-0.3c0.1-0.1,0.1-0.1,0.2-0.1c0.1,0,0.2,0.1,0.3,0.1c0.2,0.1,0.4,0.2,0.5,0.1l-0.1-0.1
	c-0.1-0.2-0.1-0.2,0-0.1c0.1,0.1,0.3,0.1,0.6,0.1l0.2,0l-0.1-0.1c-0.1-0.1-0.1-0.1,0.1,0c0.1,0.1,0.1,0.1-0.2,0.2
	c-0.1,0-0.3,0-0.4,0c-0.2-0.1-0.2,0-0.1,0c0,0,0,0.1,0.1,0.1c0,0,0,0,0,0c0,0.1-0.4,0-0.5-0.1c-0.4-0.2-0.5-0.2-0.5-0.2
	c0,0-0.1,0-0.1,0c0,0,0,0,0,0.1C19,13,19.2,13.2,19.3,13c0,0,0-0.1,0-0.1c-0.1-0.1-0.1-0.1,0-0.1c0.1,0,0.1,0.2,0,0.2
	C19.2,13.1,19.1,13.1,19,13z"/>
<path d="M20.6,12.6c-0.1-0.1,0-0.1,0.2-0.1c0.3,0,0.5,0,0.7-0.2c0.2-0.1,0.2-0.1,0,0c-0.1,0.1-0.4,0.2-0.6,0.2L20.6,12.6
	C20.7,12.6,20.6,12.6,20.6,12.6L20.6,12.6z"/>
</svg>
