<svg width="462" height="479" fill="none" xmlns="http://www.w3.org/2000/svg"><path opacity=".11" d="M249.747 475.798c105.508 0 191.039-11.644 191.039-26.007 0-14.363-85.531-26.007-191.039-26.007-105.507 0-191.038 11.644-191.038 26.007 0 14.363 85.531 26.007 191.038 26.007z" fill="#FFCE3B"/><path opacity=".11" d="M452.992 303.485c2.281 56.038-52.579 182.478-212.767 174.917C89.287 471.277-60.071 351.129 24.559 161.505 106.342-21.738 253.493-6.521 305.366 7.991c57.355 16.046 221.207 81.047 127.471 189.232-150.405 173.586 15.503-7.991 20.155 106.262z" fill="#FFCE3B"/><path d="M176.406 125.346 142.976 93.2l-58.462 60.798 33.426 32.142a149.068 149.068 0 0 1 58.466-60.794zM101.345 254.38c0-14.652 2.134-28.804 6.09-42.173H61.066v84.346h46.369a148.405 148.405 0 0 1-6.09-42.173zM249.747 105.977c14.652 0 28.804 2.134 42.174 6.09V65.698h-84.347v46.369a148.41 148.41 0 0 1 42.173-6.09zM381.556 186.14l33.426-32.142L356.519 93.2l-33.429 32.146a149.068 149.068 0 0 1 58.466 60.794zM392.061 212.207a148.44 148.44 0 0 1 6.089 42.173 148.44 148.44 0 0 1-6.089 42.173h46.368v-84.346h-46.368zM323.09 383.415l33.429 32.145 58.463-60.798-33.426-32.142c-13.214 25.471-33.59 46.625-58.466 60.795zM117.94 322.62l-33.426 32.142 58.463 60.798 33.429-32.146a149.068 149.068 0 0 1-58.466-60.794zM249.747 402.782a148.41 148.41 0 0 1-42.173-6.089v46.369h84.347v-46.369a148.416 148.416 0 0 1-42.174 6.089z" fill="#FFCE3B"/><path d="M410.864 250.656c-1.946-88.968-74.625-160.505-164.06-160.505a163.85 163.85 0 0 0-53.753 9.05c-12.25 4.246-23.811 9.938-34.542 16.815-11.57 7.415-22.169 16.211-31.519 26.202-10.173 10.871-18.909 23.103-25.849 36.428-11.792 22.641-18.49 48.359-18.49 75.658 0 5.166.258 10.269.724 15.313 6.44 69.588 56.298 126.588 122.245 143.627a164.452 164.452 0 0 0 41.184 5.213c90.658 0 164.153-73.493 164.153-164.153 0-1.223-.066-2.431-.093-3.648zm-164.06 110.527c-9.286 0-18.294-1.188-26.883-3.413-43.757-11.336-76.566-49.709-79.688-96.218-.162-2.401-.309-4.806-.309-7.248 0-18.172 4.571-35.261 12.573-50.239 5.011-9.378 11.41-17.887 18.868-25.337 5.271-5.265 11.106-9.956 17.372-14.042 7.586-4.947 15.815-8.99 24.584-11.881a106.714 106.714 0 0 1 33.483-5.38c57.804 0 104.859 45.895 106.786 103.231.041 1.213.092 2.425.092 3.648 0 59.028-47.852 106.879-106.878 106.879z" fill="#FFCE3B"/><path fill-rule="evenodd" clip-rule="evenodd" d="M167.574 329.187s-5.487 4.097-8.294 6.191a2.854 2.854 0 0 1-3.288.089 4.88 4.88 0 0 1-1.194-7.007l4.872-6.453 7.904 7.18z" fill="#FCD2B1"/><path fill-rule="evenodd" clip-rule="evenodd" d="M264.308 294.201c4.091 3.01 11.43 6.123 14.099 9.541 17.143 21.957-.952 38.825-25.643 21.963-39.685-27.103-35.434-37.235-85.536 6.892l-11.351-8.885c36.797-61.16 51.109-71.675 108.431-29.511z" fill="#0E538C"/><path fill-rule="evenodd" clip-rule="evenodd" d="m217.841 397.389-3.243 12.009a2.774 2.774 0 0 1-3.031 2.029 3.442 3.442 0 0 1-2.977-3.849l1.79-13.99 7.461 3.801z" fill="#FCD2B1"/><path fill-rule="evenodd" clip-rule="evenodd" d="M217.362 408.193c-.019-.566-11.028-1.526-11.157-1.092-.037.054-.054.116-.073.178a12.745 12.745 0 0 1-13.711 9.028 2.817 2.817 0 0 0-1.058.075c-3.808 1.017-5.924 3.177-6.308 6.512 10.755 1.418 21.679 1.16 32.786-.911l-.479-13.79zM161.599 335.643c.261-.502-8.84-6.769-9.166-6.455a.598.598 0 0 0-.151.118 12.745 12.745 0 0 1-16.38 1.089 2.858 2.858 0 0 0-.957-.458c-3.815-.994-6.722-.159-8.701 2.551 8.655 6.542 18.284 11.706 28.967 15.386l6.388-12.231z" fill="#0B4870"/><path d="M144.633 338.582s.042.017 0 0z" fill="#0B4870"/><path fill-rule="evenodd" clip-rule="evenodd" d="M279.368 317.165c5.076.2 12.898-1.335 17.025 0 26.503 8.576 17.526 40.512-12.374 40.383-48.056-.206-48.63-7.706-64.523 42.745l-11.646-1.109c-3.801-71.275.414-84.813 71.518-82.019z" fill="#0E538C"/><path fill-rule="evenodd" clip-rule="evenodd" d="M286.328 290.658s7.449 5.05 10.791 1.466c3.341-3.584 1.025 7.36 1.025 7.36l-3.8 4.001-6.879-6.593-6.963-7.427 5.826 1.193zM324.993 256.366c-4.837-5.442-13.543-14.994-13.543-14.994s-15.006 4.84-13.306 14.209a376.236 376.236 0 0 1 2.684 17.006l19.249-5.294s9.752-5.486 4.916-10.927z" fill="#FCD2B1"/><path fill-rule="evenodd" clip-rule="evenodd" d="M298.102 255.581s5.025 48.852-12.98 52.62l-1.102 8.964s16.595-4.358 20.224-11.755c3.629-7.398 8.024-44.48 8.024-44.48-6.745.51-11.649-1.068-14.166-5.349z" fill="#0B4870"/><path fill-rule="evenodd" clip-rule="evenodd" d="M280.158 214.701c-6.598 4.774-9.108 13.335-7.193 21.745.341 1.497 1.898 8.597 3.789 11.326 9.546 13.78 25.542 10.168 31.544 5.827 9.257-6.697 10.468-20.849 2.702-31.583-7.765-10.734-21.585-14.011-30.842-7.315z" fill="#FFE3CA"/><path fill-rule="evenodd" clip-rule="evenodd" d="M259.707 226.988c.817 17.178 27.211.41 28.164-3.504-.141 5.462 2.498 9.703 7.67 12.832 0 0-1.126 5.518 3.751 8.019 4.875 2.5 12.659 8.092 16.824 3.334 2.845-3.251 3.553-10.225 4.178-16.03 2.697-25.034-18.633-21.886-23.278-24.043 0 0-38.715-10.196-37.309 19.392z" fill="#0B4870"/><path fill-rule="evenodd" clip-rule="evenodd" d="M294.959 237.243a5.604 5.604 0 1 1 11.21 0v.543a6.146 6.146 0 0 1-6.146 6.146h-5.064v-6.689z" fill="#FFE3CA"/><path d="M315.292 214.532c-.024-.115 0 0 0 0z" fill="#602600"/><path d="m247.564 266.231 42.71 34.075 1.298-1.644-42.105-33.253c-.722-.246-1.47.274-1.903.822z" fill="#D3D3D3"/><path fill-rule="evenodd" clip-rule="evenodd" d="m248.718 266.231 42.206 33.253-6.892 17.468-42.206-33.254 6.892-17.467z" fill="#F7F7F7"/><path d="M283.043 316.784c-.357 1.705.189 2.219 1.993 1.075l7.196-18.374c-.316-.973-1.078-1.1-2.286-.382l-6.903 17.681z" fill="#D3D3D3"/><path d="M240.641 283.311c-.209.639-.152.777.318 1.206l42.191 33.793 1.309-1.636-41.585-33.307 6.137-17.136h-1.445l-6.925 17.08z" fill="#D3D3D3"/><path fill-rule="evenodd" clip-rule="evenodd" d="M288.359 315.324c7.851 3.115 11.987 19.657 13.947 38.507 74.533-20.763 49.718-82.214 19.06-101.515-1.298 6.244-5.661 7.667-12.911 8.614-.208 20.415-1.423 32.012-20.096 54.394z" fill="#0B4870"/><path fill-rule="evenodd" clip-rule="evenodd" d="M294.653 318.038a55.756 55.756 0 0 0-5.821-2.016 5.736 5.736 0 0 1-3.766-3.15c-1.412-3.09-3.713-5.752-6.957-7.961a4.679 4.679 0 0 1-1.472-1.611c-.559-1.001-1.327-2.39-1.327-2.39-.56-.997-1.298-1.435-2.069-1.425a1.748 1.748 0 0 0-1.441 2.758c.989 1.504 2.651 3.863 3.743 5.412a.42.42 0 0 1-.484.639c-.616-.228-1.279-.251-1.968-.108a4.193 4.193 0 0 1-3.624-1.001c-1.347-1.203-2.908-2.342-4.717-3.414-1.29-.765-2.485.758-2.402 2.367l9.904 7.53c7.903.868 14.072 5.121 19.897 10.044-.001 0 7.553-3.615 2.504-5.674z" fill="#FCD2B1"/><path fill-rule="evenodd" clip-rule="evenodd" d="M311.614 317.859c-6.283 1.974-13.659 1.327-16.782.283-2.106-.703-5.443 3.792-3.117 5.143 5.14 2.986 15.129 7.856 23.662 10.409 1.506-5.382-1.503-11.29-3.763-15.835z" fill="#FCD2B1"/><path fill-rule="evenodd" clip-rule="evenodd" d="M314.7 333.486c16.406 4.759 48.863-5.624 27.8-60.148-1.055-2.73-8.431-11.229-18.254-7.709-3.896 1.395-12.242 7.766-6.936 19.112 11.63 24.867 1.639 30.843-7.554 33.73 4.071 4.431 6.447 9.64 4.944 15.015z" fill="#0E538C"/><path d="M276.908 286.082c-1.122.014-2.353.277-2.676 1.303-.363 1.152.781 2.384 2.087 2.146 2.66-.453 5.344 1.278 7.877 3.019 0 0 2.217.656 2.611-1.007.361-1.523-1.809-2.629-3.669-3.625-1.937-1.037-4.024-1.865-6.23-1.836z" fill="#FCD2B1"/></svg>