<svg xmlns="http://www.w3.org/2000/svg" viewBox="0 0 45 45" style="enable-background:new 0 0 45 45" xml:space="preserve"><defs><clipPath id="a" clipPathUnits="userSpaceOnUse"><path d="M4 31a4 4 0 0 1-4-4V9a4 4 0 0 1 4-4h28a4 4 0 0 1 4 4v18a4 4 0 0 1-4 4H4z"/></clipPath></defs><g clip-path="url(#a)" transform="matrix(1.25 0 0 -1.25 0 45)"><path style="fill:#039;fill-opacity:1;fill-rule:nonzero;stroke:none" d="M0 31h36V5H0v26z"/><path style="fill:#fc0;fill-opacity:1;fill-rule:nonzero;stroke:none" d="m0 0 .849.617H-.2l-.325.998-.324-.998h-1.049L-1.049 0l-.325-.998.849.617.849-.617L0 0z" transform="translate(18.54 26.296)"/><path style="fill:#fc0;fill-opacity:1;fill-rule:nonzero;stroke:none" d="m0 0 .849.617H-.2l-.325.998-.324-.998h-1.049L-1.049 0l-.325-.998.849.617.849-.617L0 0z" transform="translate(18.54 8.962)"/><path style="fill:#fc0;fill-opacity:1;fill-rule:nonzero;stroke:none" d="m0 0 .849.617H-.2l-.325.998-.324-.998h-1.049L-1.049 0l-.325-.998.849.617.849-.617L0 0z" transform="translate(9.873 17.629)"/><path style="fill:#fc0;fill-opacity:1;fill-rule:nonzero;stroke:none" d="m0 0 .849.617H-.2l-.325.998-.324-.998h-1.049L-1.049 0l-.325-.998.849.617.849-.617L0 0z" transform="translate(10.98 21.914)"/><path style="fill:#fc0;fill-opacity:1;fill-rule:nonzero;stroke:none" d="m0 0 .849.617H-.2l-.325.998-.324-.998h-1.049L-1.049 0l-.325-.998.849.617.849-.617L0 0z" transform="translate(10.98 13.296)"/><path style="fill:#fc0;fill-opacity:1;fill-rule:nonzero;stroke:none" d="m0 0 .849.617H-.2l-.325.998-.324-.998h-1.049L-1.049 0l-.325-.998.849.617.849-.617L0 0z" transform="translate(14.206 25.134)"/><path style="fill:#fc0;fill-opacity:1;fill-rule:nonzero;stroke:none" d="m0 0 .849.617H-.2l-.325.998-.324-.998h-1.049L-1.049 0l-.325-.998.849.617.849-.617L0 0z" transform="translate(14.206 10.067)"/><path style="fill:#fc0;fill-opacity:1;fill-rule:nonzero;stroke:none" d="m0 0-.849.617H.2l.325.998.324-.998h1.049L1.049 0l.325-.998-.849.617-.849-.617L0 0z" transform="translate(26.128 17.629)"/><path style="fill:#fc0;fill-opacity:1;fill-rule:nonzero;stroke:none" d="m0 0-.849.617H.2l.325.998.324-.998h1.049L1.049 0l.325-.998-.849.617-.849-.617L0 0z" transform="translate(25.02 21.914)"/><path style="fill:#fc0;fill-opacity:1;fill-rule:nonzero;stroke:none" d="m0 0-.849.617H.2l.325.998.324-.998h1.049L1.049 0l.325-.998-.849.617-.849-.617L0 0z" transform="translate(25.02 13.296)"/><path style="fill:#fc0;fill-opacity:1;fill-rule:nonzero;stroke:none" d="m0 0-.849.617H.2l.325.998.324-.998h1.049L1.049 0l.325-.998-.849.617-.849-.617L0 0z" transform="translate(21.794 25.134)"/><path style="fill:#fc0;fill-opacity:1;fill-rule:nonzero;stroke:none" d="m0 0-.849.617H.2l.325.998.324-.998h1.049L1.049 0l.325-.998-.849.617-.849-.617L0 0z" transform="translate(21.794 10.067)"/></g></svg>