<svg width="688" height="479" fill="none" xmlns="http://www.w3.org/2000/svg"><path opacity=".14" d="M239.141 476.096c-15.324-2.296-175.68-28.754-224.98-163.571C-28.885 194.812 32.238 48.001 116.32 18.673c65.715-22.9 95.904 43.217 208.911 40.75 117.541-2.526 144.687-75.3 221.537-56.246 88.615 21.982 162.537 146.008 135.447 235.311-5.682 18.768-19.284 47.35-107.325 105.604-140.096 92.747-224.521 148.59-335.749 132.004z" fill="#FFCE3C"/><path d="m98.127 255.477-6.084 10.56h12.225l-6.141-10.56z" fill="#FFCE3C"/><path d="m47.277 287.732-10.101 6.887 11.02 5.28-.919-12.167z" fill="#0B4870"/><path d="m536.265 291.175-10.101 6.887 11.02 5.281-.919-12.168zM596.125 267.185l10.101-6.887-11.019-5.338.918 12.225z" fill="#FFCE3C"/><path d="m540.453 255.706 10.102-6.887-11.02-5.337.918 12.224z" fill="#FF5B92"/><path d="m99.676 77.788 10.101-6.887-11.02-5.338.92 12.225z" fill="#FFCE3C"/><path d="m142.721 229.879 10.101-6.887-11.019-5.337.918 12.224z" fill="#0B4870"/><path d="m78.268 155.67 6.083 10.618 6.141-10.618H78.268z" fill="#FF5B92"/><path d="m494.367 60.972 6.084 10.617 6.141-10.617h-12.225zM325.516 266.669H216.01v84.999h109.506v-84.999z" fill="#FFCE3C"/><path d="M326.09 266.669h-74.955v84.999h74.955v-84.999z" fill="#FFCE3C"/><path d="M294.753 266.669h-15.61v84.999h15.61v-84.999z" fill="#fff"/><path d="M303.248 215.819h-62.902v50.85h62.902v-50.85z" fill="#FF5B92"/><path opacity=".35" d="M303.478 215.819h-48.267v50.85h48.267v-50.85z" fill="#8BBFE6"/><path d="M285.055 215.819h-13.717v50.85h13.717v-50.85z" fill="#fff"/><path opacity=".13" d="M240.632 266.497h-24.679v84.941h24.679v-84.941z" fill="#000"/><path d="M344.228 174.61s-11.02 55.959 24.449 60.722v18.424h24.22l2.181-81.499-50.85 2.296" fill="#B97A59"/><path d="M381.648 184.137s-35.239 9.126-41.495-3.099 7.92-20.604 20.833-20.833c12.971-.23 30.189 3.615 30.189 3.615s6.715-6.256 12.454-3.615c5.74 2.64 7.921 7.69 7.921 13.2 0 5.51.975 13.2 10.044 20.604 9.125 7.461 33.115 26.86 29.729 48.21-3.329 21.35-20.834 18.71-20.834 18.71s-39.314 1.665-39.314-13.2c0-14.865-1.894-30.935-1.894-30.935s7.92-8.379 1.894-13.889c-5.969-5.51-7.92 2.87-7.92 2.87s-3.788-15.898-1.607-21.638z" fill="#0B4870"/><path d="M365.175 245.892s-10.159 19.342-16.242 34.723c-6.084 15.381-7.347 42.471-4.133 64.854 3.214 22.441-13.774 38.109-9.584 41.323 4.19 3.214 90.968 21.121 89.705-11.88-1.263-33.001-11.192-57.049-11.88-72.086-.632-15.037-2.239-51.883-12.799-57.049-10.56-5.165-35.067.115-35.067.115zM368.045 158.253l44.135 23.417 12.627-57.566-56.762 34.149z" fill="#FFCE3C"/><path d="M534.715 351.036H60.075v93.838h474.64v-93.838z" fill="#fff"/><path d="M427.446 280.386s46.029 84.999-24.507 91.656c-70.536 6.658-104.283-11.478-104.283-11.478l13.373-11.479s92.403 12.225 101.299-2.238c8.895-14.463-10.389-60.894-10.389-60.894l24.507-5.567z" fill="#B97A59"/><path d="m399.956 297.431 33.747-11.88s-17.791-47.521-33.747-39.716c-15.955 7.806 0 51.596 0 51.596z" fill="#FFCE3C"/><path d="M311.973 349.028s-5.911-10.044-15.955-11.881c-10.044-1.836.746 2.985 2.582 5.912 1.837 2.984-17.791 2.238-34.148-.746-3.559-.632-5.682-.804-6.027 0-.918 2.009 9.987 9.814 20.604 14.233 8.954 3.731 16.989 4.821 22.384 5.166 1.32-.46 4.304-1.607 6.887-4.592 2.87-3.214 3.501-6.715 3.673-8.092z" fill="#B97A59"/><path d="M206.599 422.204c29.859 0 54.065-13.31 54.065-29.73 0-16.419-24.206-29.729-54.065-29.729-29.858 0-54.064 13.31-54.064 29.729 0 16.42 24.206 29.73 54.064 29.73z" fill="#D3D3D3"/><path d="m174.287 387.251 34.149-26.687 27.491 15.955-61.64 10.732z" fill="#fff"/><path d="M235.927 376.519v17.792l-57.163 8.896-4.477-15.955" fill="#FFCE3C"/><path d="M183.469 168.929c-5.395 10.158 1.492 20.432 5.968 29.442 2.985 6.027 4.362 12.225 3.272 18.94-.976 6.084-3.501 11.823-6.084 17.39-5.05 10.847-9.757 21.35-11.765 33.288-2.009 11.766-2.009 23.818-.976 35.699 1.148 13.831 3.673 27.491 6.256 41.093.229 1.091 1.894.631 1.664-.459-4.534-23.876-9.125-48.555-5.739-72.889 1.722-12.168 5.969-23.015 11.191-34.034 4.42-9.298 9.011-19.457 7.175-30.017-2.067-12.282-16.3-24.622-9.47-37.592.516-.976-.976-1.837-1.492-.861z" fill="#D3D3D3"/><path d="M222.325 190.967c-14.119 14.291-18.079 34.436-21.236 53.548-1.722 10.503-3.386 21.006-6.256 31.279-3.156 11.479-7.346 22.613-10.904 33.977-3.96 12.627-7.174 25.483-7.519 38.798 0 1.09 1.722 1.09 1.722 0 .574-23.646 10.388-45.513 17.046-67.839 5.854-19.571 6.944-40.118 12.511-59.746 3.042-10.732 7.863-20.834 15.783-28.811.861-.746-.401-2.009-1.147-1.206z" fill="#D3D3D3"/><path d="M188.224 172.909c17.222-6.06 24.788-29.152 16.897-51.577-7.89-22.425-28.248-35.691-45.47-29.632-17.223 6.06-24.788 29.151-16.898 51.577 7.891 22.425 28.248 35.691 45.471 29.632z" fill="#8BBFE6"/><path d="M264.98 169.584c10.277-21.437 5.262-45.212-11.201-53.105-16.463-7.893-38.14 3.086-48.417 24.522-10.277 21.436-5.262 45.212 11.201 53.105 16.463 7.893 38.14-3.086 48.417-24.522z" fill="#FFCE3C"/><path d="M482.486 181.211c-5.108 6.313-8.035 14.348-10.274 22.039-2.64 8.953-4.361 18.251-4.878 27.606-.574 10.675 1.894 21.178 4.362 31.509 3.214 13.315 6.428 26.515 7.059 40.289.689 15.382-1.262 30.706-5.567 45.456-.287 1.09 1.32 1.492 1.664.459 7.347-24.909 7.117-50.391 1.206-75.529-2.755-11.881-6.715-24.048-7.06-36.273-.287-9.01 1.206-18.136 3.272-26.917 2.238-9.413 5.28-19.743 11.478-27.434.689-.803-.516-2.066-1.262-1.205z" fill="#D3D3D3"/><path d="M519.294 158.925c4.455-23.352-6.472-45.057-24.406-48.478-17.935-3.422-36.085 12.735-40.54 36.087-4.455 23.353 6.472 45.057 24.407 48.479 17.934 3.421 36.084-12.736 40.539-36.088z" fill="#FFCE3C"/></svg>