<svg width="691" height="307" fill="none" xmlns="http://www.w3.org/2000/svg"><g clip-path="url(#a)"><path d="M294.173 196.131H14.234a14.245 14.245 0 0 1-10.06-4.176A14.264 14.264 0 0 1 0 181.888V10.847A10.863 10.863 0 0 1 3.178 3.18 10.848 10.848 0 0 1 10.84 0h286.567a11.008 11.008 0 0 1 7.775 3.228 11.029 11.029 0 0 1 3.226 7.78v170.88a14.27 14.27 0 0 1-4.174 10.067 14.246 14.246 0 0 1-10.06 4.176z" fill="#fff"/><path d="M294.173 196.131H14.234a14.245 14.245 0 0 1-10.06-4.176A14.264 14.264 0 0 1 0 181.888V10.847A10.863 10.863 0 0 1 3.178 3.18 10.848 10.848 0 0 1 10.84 0h286.567a11.008 11.008 0 0 1 7.775 3.228 11.029 11.029 0 0 1 3.226 7.78v170.88a14.27 14.27 0 0 1-4.174 10.067 14.246 14.246 0 0 1-10.06 4.176zM10.839 3.08a7.768 7.768 0 0 0-5.486 2.277 7.779 7.779 0 0 0-2.275 5.49v171.041a11.18 11.18 0 0 0 3.271 7.89 11.168 11.168 0 0 0 7.885 3.274h279.939a11.17 11.17 0 0 0 11.156-11.164V11.008a7.94 7.94 0 0 0-2.323-5.604 7.928 7.928 0 0 0-5.6-2.324H10.839z" fill="#E6E6E6"/><path d="M127.807 152.826h-83.88a8.484 8.484 0 0 1-8.463-8.469V51.774a8.482 8.482 0 0 1 2.48-5.986 8.47 8.47 0 0 1 5.982-2.483h83.881a8.471 8.471 0 0 1 8.463 8.47v92.582a8.483 8.483 0 0 1-2.481 5.986 8.467 8.467 0 0 1-5.982 2.483zM43.927 47.925a3.85 3.85 0 0 0-3.847 3.85v92.582a3.865 3.865 0 0 0 1.302 2.882 3.861 3.861 0 0 0 2.544.968h83.881a3.856 3.856 0 0 0 3.847-3.85V51.774a3.855 3.855 0 0 0-3.847-3.85h-83.88zM266.789 122.722H165.227a6.161 6.161 0 0 1 0-12.318h101.562a6.157 6.157 0 0 1 4.352 10.514 6.153 6.153 0 0 1-4.352 1.804zM220.625 96.545h-55.398a6.152 6.152 0 0 1-4.352-1.804 6.163 6.163 0 0 1 0-8.71 6.152 6.152 0 0 1 4.352-1.805h55.398c1.632 0 3.198.65 4.352 1.804a6.163 6.163 0 0 1 0 8.71 6.152 6.152 0 0 1-4.352 1.805z" fill="#E6E6E6"/><path d="M113.524 95.521c0 13.607-12.573 11.549-28.083 11.549-15.51 0-28.084 2.058-28.084-11.549S63.5 57.795 85.441 57.795c22.697 0 28.083 24.12 28.083 37.726z" fill="#2F2E41"/><path d="M114.659 118.421a6.972 6.972 0 0 0-3.047-3.726 6.064 6.064 0 0 0-.861-.439 6.966 6.966 0 0 0-9.461 4.859 6.978 6.978 0 0 0 .243 3.972l11.187 25.446h14.734l-12.795-30.112zM65.842 119.807a6.966 6.966 0 0 0-9.61 3.981L45.815 148.31a6.05 6.05 0 0 0 1.638.223h13.072l8.833-20.08a6.96 6.96 0 0 0-3.516-8.646z" fill="#3F3D56"/><path d="M85.347 107.047c10.436 0 18.897-8.466 18.897-18.91s-8.46-18.91-18.897-18.91c-10.437 0-18.898 8.466-18.898 18.91s8.46 18.91 18.898 18.91z" fill="#FFB8B8"/><path d="M111.944 114.995c-.108-.1-.216-.208-.331-.3a12.264 12.264 0 0 0-9.81-3.057L66.98 116.05c-3.19.395-6.101 2.018-8.115 4.525a12.371 12.371 0 0 0-2.672 8.902c.477 5.375 1.246 12.158 2.477 19.056h55.013l2.023-23.529a12.352 12.352 0 0 0-3.762-10.009z" fill="#3F3D56"/><path d="M63.512 86.282h7.474l3.297-9.24.66 9.24h3.572l1.924-5.39.384 5.39h26.545c0-5.31-2.108-10.4-5.859-14.155a20 20 0 0 0-14.146-5.863h-3.847a19.998 19.998 0 0 0-14.145 5.863 20.025 20.025 0 0 0-5.86 14.155z" fill="#2F2E41"/><path d="M382.594 181.888V11.008a11.023 11.023 0 0 1 3.225-7.78A11.01 11.01 0 0 1 393.594 0h286.567a10.847 10.847 0 0 1 7.661 3.18A10.862 10.862 0 0 1 691 10.848v171.041a14.265 14.265 0 0 1-4.173 10.067 14.247 14.247 0 0 1-10.061 4.176H396.828a14.247 14.247 0 0 1-10.061-4.176 14.265 14.265 0 0 1-4.173-10.067z" fill="#fff"/><path d="M382.594 181.888V11.008a11.023 11.023 0 0 1 3.225-7.78A11.01 11.01 0 0 1 393.594 0h286.567a10.847 10.847 0 0 1 7.661 3.18A10.862 10.862 0 0 1 691 10.848v171.041a14.265 14.265 0 0 1-4.173 10.067 14.247 14.247 0 0 1-10.061 4.176H396.828a14.247 14.247 0 0 1-10.061-4.176 14.265 14.265 0 0 1-4.173-10.067zm11-178.808a7.93 7.93 0 0 0-7.923 7.928v170.88a11.18 11.18 0 0 0 3.272 7.89 11.167 11.167 0 0 0 7.885 3.274h279.938a11.167 11.167 0 0 0 7.885-3.274 11.18 11.18 0 0 0 3.272-7.89V10.847a7.782 7.782 0 0 0-2.276-5.49 7.768 7.768 0 0 0-5.486-2.277H393.594z" fill="#E6E6E6"/><path d="M554.73 144.357V51.774a8.482 8.482 0 0 1 2.482-5.986 8.471 8.471 0 0 1 5.982-2.483h83.88a8.471 8.471 0 0 1 5.982 2.483 8.482 8.482 0 0 1 2.482 5.986v92.583a8.484 8.484 0 0 1-8.464 8.469h-83.88a8.467 8.467 0 0 1-5.982-2.483 8.484 8.484 0 0 1-2.482-5.986zm8.464-96.433a3.85 3.85 0 0 0-3.847 3.85v92.583a3.856 3.856 0 0 0 3.847 3.85h83.88a3.86 3.86 0 0 0 3.847-3.85V51.774a3.855 3.855 0 0 0-3.847-3.85h-83.88zM418.057 116.563a6.167 6.167 0 0 1 6.155-6.159h101.561c1.633 0 3.198.648 4.353 1.804a6.16 6.16 0 0 1-4.353 10.514H424.212a6.167 6.167 0 0 1-6.155-6.159zM418.057 90.386a6.169 6.169 0 0 1 1.805-4.354 6.158 6.158 0 0 1 4.35-1.806h55.397a6.159 6.159 0 0 1 0 12.319h-55.397a6.169 6.169 0 0 1-6.155-6.16z" fill="#E6E6E6"/><path d="M584.404 79.283c5.394 10.612 9.645 21.558 21.543 21.558a21.534 21.534 0 0 0 15.233-6.314 21.566 21.566 0 0 0 0-30.487 21.534 21.534 0 0 0-15.233-6.315c-12.092-.151-31.583 1.806-21.543 21.558z" fill="#2F2E41"/><path d="M604.888 101.261c10.436 0 18.897-8.466 18.897-18.91s-8.461-18.91-18.897-18.91c-10.437 0-18.898 8.466-18.898 18.91s8.461 18.91 18.898 18.91z" fill="#B97A59"/><path d="M630.688 116.82a32.967 32.967 0 0 0-3.963-3.665 32.088 32.088 0 0 0-21.843-6.775c-.315.015-.631.038-.947.069a32.173 32.173 0 0 0-23.205 12.812 32.624 32.624 0 0 0-5.786 26.293c.208.962.393 1.932.57 2.902h62.644l.724-4.85a32.438 32.438 0 0 0-8.194-26.786z" fill="#3F3D56"/><path d="M640.281 121.878a10.97 10.97 0 0 0-10.717-9.085c-.1 0-.208.008-.308.008-.855.02-1.704.138-2.531.354a10.927 10.927 0 0 0-8.028 9.152 10.953 10.953 0 0 0 .287 4.268l5.917 21.881h19.912l-4.532-26.578zM596.464 116.143a10.926 10.926 0 0 0-3.147-3.758 10.603 10.603 0 0 0-3.093-1.617c-.455-.155-.92-.279-1.392-.369a10.98 10.98 0 0 0-12.388 7.114l-10.833 30.943h20.559l10.486-22.759a10.845 10.845 0 0 0-.192-9.554z" fill="#3F3D56"/><path d="M584.834 71.664a25.69 25.69 0 0 0 14.688 4.542c-1.87 1.298-4 2.175-6.242 2.57a51.791 51.791 0 0 0 21.169.12 13.695 13.695 0 0 0 4.432-1.524 5.619 5.619 0 0 0 2.735-3.66c.465-2.656-1.603-5.068-3.751-6.694a27.668 27.668 0 0 0-23.255-4.65c-2.598.672-5.2 1.808-6.888 3.895-1.687 2.088-2.187 5.306-.579 7.456l-2.309-2.055z" fill="#2F2E41"/><path d="M485.469 307H205.531a14.243 14.243 0 0 1-10.06-4.176 14.264 14.264 0 0 1-4.174-10.068v-171.04a10.864 10.864 0 0 1 3.178-7.667 10.848 10.848 0 0 1 7.661-3.18h286.567a11.009 11.009 0 0 1 7.775 3.227 11.025 11.025 0 0 1 3.225 7.78v170.88a14.267 14.267 0 0 1-4.173 10.068A14.247 14.247 0 0 1 485.469 307z" fill="#fff"/><path d="M485.469 307H205.531a14.243 14.243 0 0 1-10.06-4.176 14.264 14.264 0 0 1-4.174-10.068v-171.04a10.864 10.864 0 0 1 3.178-7.667 10.848 10.848 0 0 1 7.661-3.18h286.567a11.009 11.009 0 0 1 7.775 3.227 11.025 11.025 0 0 1 3.225 7.78v170.88a14.267 14.267 0 0 1-4.173 10.068A14.247 14.247 0 0 1 485.469 307zM202.136 113.948a7.772 7.772 0 0 0-7.762 7.768v171.04a11.183 11.183 0 0 0 3.272 7.891 11.162 11.162 0 0 0 7.885 3.273h279.938a11.162 11.162 0 0 0 7.885-3.273 11.183 11.183 0 0 0 3.272-7.891v-170.88a7.934 7.934 0 0 0-7.923-7.928H202.136z" fill="#3F3D56"/><path d="M319.104 263.695h-83.881a8.484 8.484 0 0 1-8.463-8.469v-92.583a8.478 8.478 0 0 1 8.463-8.469h83.881a8.467 8.467 0 0 1 5.982 2.483 8.481 8.481 0 0 1 2.481 5.986v92.583a8.476 8.476 0 0 1-8.463 8.469zm-83.881-104.902a3.85 3.85 0 0 0-3.847 3.85v92.583a3.858 3.858 0 0 0 3.847 3.849h83.881a3.853 3.853 0 0 0 3.847-3.849v-92.583a3.856 3.856 0 0 0-3.847-3.85h-83.881z" fill="#E6E6E6"/><path d="M275.946 171.099c-5.461-2.541-12.165-3.375-17.721-1.013-5.556 2.362-9.344 8.417-7.547 13.775.814 2.429 2.669 4.818 1.947 7.272-.557 1.888-2.497 3.135-4.403 4.022-1.906.886-3.991 1.631-5.37 3.127-1.378 1.495-1.665 4.069.057 5.228.567.382 1.276.564 1.826.966a2.905 2.905 0 0 1 .896 3.251 6.851 6.851 0 0 1-2.194 2.888c-1.954 1.687-4.538 3.617-3.931 6.012a4.214 4.214 0 0 0 2.845 2.662c1.356.392 2.764.577 4.175.552l57.679 1.818c1.904.143 3.819.036 5.695-.319a6.74 6.74 0 0 0 4.473-3.006c1.104-2.046.379-4.566-.985-6.477-1.364-1.91-3.294-3.417-4.89-5.171-1.595-1.754-2.9-3.944-2.619-6.211.225-1.815 1.422-3.384 2.28-5.033.859-1.649 1.358-3.71.246-5.227-1.568-2.138-5.33-1.945-7.112-3.937-1.345-1.503-1.085-3.667-1.219-5.606-.321-4.663-3.548-9.067-8.14-11.112a16.019 16.019 0 0 0-14.583.994l-1.405.545z" fill="#2F2E41"/><path d="M278.079 221.211c10.437 0 18.897-8.466 18.897-18.91 0-10.443-8.46-18.91-18.897-18.91-10.437 0-18.897 8.467-18.897 18.91 0 10.444 8.46 18.91 18.897 18.91z" fill="#B97A59"/><path d="M302.889 245.633a18.31 18.31 0 0 0-9.756-16.092c-.238-.131-.485-.246-.731-.362a18.164 18.164 0 0 0-6.778-1.724l-17.989-1.009a18.158 18.158 0 0 0-7.463 1.147c-.58.216-1.147.463-1.701.739a18.095 18.095 0 0 0-4.708 3.35 18.318 18.318 0 0 0-5.432 13.812l.323 7.63 2.262 5.874h50.296a13.845 13.845 0 0 0 1.616-2.448 12.261 12.261 0 0 0 .061-10.917z" fill="#3F3D56"/><path d="M301.659 235.516a10.89 10.89 0 0 0-3.724-4.42 11.12 11.12 0 0 0-3.855-1.678 11.288 11.288 0 0 0-1.677-.239 10.861 10.861 0 0 0-3.308.285 10.978 10.978 0 0 0-7.37 6.167 10.994 10.994 0 0 0 .299 9.609l6.917 13.104.346.654h23.229l-10.857-23.482zM263.643 228.686a11.034 11.034 0 0 0-3.47-1.093c-.9-.128-1.812-.141-2.716-.038a10.966 10.966 0 0 0-9.51 8.692l-4.685 22.751h18.327l3.424-1.401 4.262-16.368a11.03 11.03 0 0 0-5.632-12.543z" fill="#3F3D56"/><path d="M258.746 199.613c5.968-.48 10.923-6.445 10.302-12.404a10.02 10.02 0 0 0 2.345 6.732 10.008 10.008 0 0 0 6.227 3.466c2.738.302 5.739-.527 8.121.855 2.64 1.531 3.484 5.248 6.233 6.57 2.657 1.277 6.031-.465 7.343-3.106 1.313-2.64.99-5.813.121-8.631a24.378 24.378 0 0 0-6.556-10.533 24.346 24.346 0 0 0-33.984.544c-2.509 2.525-4.502 5.744-4.825 9.291-.323 3.547 1.321 7.396 4.504 8.989l.169-1.773z" fill="#2F2E41"/><path d="M458.086 233.591H356.524a6.153 6.153 0 0 1-4.352-1.804 6.164 6.164 0 0 1 0-8.711 6.153 6.153 0 0 1 4.352-1.804h101.562c1.632 0 3.198.649 4.352 1.804a6.163 6.163 0 0 1 0 8.711 6.153 6.153 0 0 1-4.352 1.804z" fill="#E6E6E6"/><path d="M411.921 207.414h-55.397a6.153 6.153 0 0 1-4.352-1.804 6.165 6.165 0 0 1 0-8.711 6.153 6.153 0 0 1 4.352-1.804h55.397a6.153 6.153 0 0 1 6.156 6.159 6.153 6.153 0 0 1-6.156 6.16zM441.645 252.395a20.287 20.287 0 0 0-14.327 5.962 20.318 20.318 0 0 0 0 28.695 20.29 20.29 0 0 0 14.326 5.961h.001a20.29 20.29 0 0 0 14.326-5.961 20.318 20.318 0 0 0 0-28.695 20.286 20.286 0 0 0-14.326-5.962z" fill="#FFCE3B"/><path d="M439.72 281.139a2.462 2.462 0 0 1-1.482-.493l-.026-.02-5.581-4.272a2.487 2.487 0 0 1-.457-3.478 2.476 2.476 0 0 1 3.475-.462l3.615 2.774 8.542-11.152a2.496 2.496 0 0 1 1.643-.95 2.479 2.479 0 0 1 1.833.491h.001l-.053.074.055-.074a2.487 2.487 0 0 1 .458 3.479l-10.048 13.112a2.478 2.478 0 0 1-1.973.968l-.002.003z" fill="#fff"/></g><defs><clipPath id="a"><path fill="#fff" d="M0 0h691v307H0z"/></clipPath></defs></svg>