<svg width="691" height="307" viewBox="0 0 691 307" fill="none" xmlns="http://www.w3.org/2000/svg">
<g clip-path="url(#clip0)">
<path d="M294.173 196.131H14.234C10.4602 196.127 6.84218 194.625 4.17371 191.955C1.50524 189.285 0.00423582 185.664 0 181.888V10.8469C0.00318084 7.97119 1.14618 5.21414 3.17824 3.18065C5.2103 1.14715 7.96546 0.003283 10.8393 0H297.406C300.323 0.00328707 303.119 1.16411 305.181 3.22777C307.243 5.29143 308.403 8.08941 308.407 11.0078V181.888C308.402 185.664 306.901 189.285 304.233 191.955C301.564 194.625 297.946 196.127 294.173 196.131Z" fill="white"/>
<path d="M294.173 196.131H14.234C10.4602 196.127 6.84218 194.625 4.17371 191.955C1.50524 189.285 0.00423582 185.664 0 181.888V10.8469C0.00318084 7.97119 1.14618 5.21414 3.17824 3.18065C5.2103 1.14715 7.96546 0.003283 10.8393 0H297.406C300.323 0.00328707 303.119 1.16411 305.181 3.22777C307.243 5.29143 308.403 8.08941 308.407 11.0078V181.888C308.402 185.664 306.901 189.285 304.233 191.955C301.564 194.625 297.946 196.127 294.173 196.131ZM10.8393 3.07968C8.78143 3.08209 6.80856 3.90122 5.35348 5.35735C3.8984 6.81348 3.07992 8.78771 3.07761 10.8469V181.888C3.08098 184.848 4.25746 187.685 6.34895 189.778C8.44045 191.871 11.2762 193.048 14.234 193.052H294.173C297.13 193.048 299.966 191.871 302.058 189.778C304.149 187.685 305.326 184.848 305.329 181.888V11.0078C305.327 8.9059 304.491 6.8907 303.006 5.40439C301.521 3.91808 299.507 3.08204 297.406 3.07968H10.8393Z" fill="#E6E6E6"/>
<path d="M127.807 152.826H43.9265C41.8743 152.823 39.8928 152.075 38.3498 150.721C36.8068 149.367 35.8071 147.499 35.5361 145.463C35.4852 145.097 35.4607 144.727 35.463 144.357V51.7741C35.4656 49.5287 36.3581 47.376 37.9447 45.7883C39.5314 44.2006 41.6826 43.3075 43.9265 43.3049H127.807C130.051 43.3075 132.202 44.2006 133.789 45.7883C135.375 47.376 136.268 49.5287 136.27 51.7741V144.357C136.268 146.602 135.375 148.755 133.789 150.343C132.202 151.931 130.051 152.824 127.807 152.826ZM43.9265 47.9245C42.9065 47.9256 41.9287 48.3316 41.2075 49.0533C40.4863 49.775 40.0806 50.7534 40.0795 51.7741V144.357C40.0778 144.515 40.0876 144.674 40.1088 144.83C40.2266 145.761 40.679 146.617 41.3816 147.239C42.0842 147.86 42.9888 148.204 43.9265 148.207H127.807C128.827 148.206 129.805 147.8 130.526 147.078C131.247 146.356 131.653 145.378 131.654 144.357V51.7741C131.653 50.7534 131.247 49.775 130.526 49.0533C129.805 48.3316 128.827 47.9256 127.807 47.9245H43.9265Z" fill="#E6E6E6"/>
<path d="M266.789 122.722H165.227C163.595 122.722 162.029 122.073 160.875 120.918C159.721 119.763 159.072 118.197 159.072 116.563C159.072 114.929 159.721 113.363 160.875 112.208C162.029 111.052 163.595 110.404 165.227 110.404H266.789C268.421 110.404 269.987 111.052 271.141 112.208C272.296 113.363 272.944 114.929 272.944 116.563C272.944 118.197 272.296 119.763 271.141 120.918C269.987 122.073 268.421 122.722 266.789 122.722Z" fill="#E6E6E6"/>
<path d="M220.625 96.5449H165.227C163.595 96.5449 162.029 95.896 160.875 94.7409C159.721 93.5858 159.072 92.0191 159.072 90.3856C159.072 88.752 159.721 87.1853 160.875 86.0302C162.029 84.8751 163.595 84.2262 165.227 84.2262H220.625C222.257 84.2262 223.823 84.8751 224.977 86.0302C226.131 87.1853 226.78 88.752 226.78 90.3856C226.78 92.0191 226.131 93.5858 224.977 94.7409C223.823 95.896 222.257 96.5449 220.625 96.5449Z" fill="#E6E6E6"/>
<path d="M113.524 95.5211C113.524 109.128 100.951 107.07 85.4406 107.07C69.9307 107.07 57.3574 109.128 57.3574 95.5211C57.3574 81.9142 63.4991 57.7949 85.4406 57.7949C108.138 57.7949 113.524 81.9142 113.524 95.5211Z" fill="#2F2E41"/>
<path d="M114.659 118.421C114.118 116.857 113.038 115.536 111.612 114.695C111.337 114.526 111.049 114.379 110.751 114.256C109.501 113.736 108.126 113.592 106.796 113.84C105.465 114.089 104.236 114.721 103.258 115.658C102.28 116.594 101.596 117.796 101.29 119.115C100.984 120.435 101.068 121.815 101.533 123.087L112.72 148.533H127.454L114.659 118.421Z" fill="#3F3D56"/>
<path d="M65.8418 119.807C64.9576 119.38 63.993 119.144 63.0113 119.116C62.0297 119.087 61.0531 119.267 60.1457 119.643C59.2383 120.019 58.4206 120.582 57.7461 121.297C57.0717 122.011 56.5557 122.86 56.2322 123.788L45.8145 148.31C46.3479 148.459 46.8993 148.534 47.4532 148.533H60.5255L69.3579 128.453C69.9471 126.833 69.9135 125.05 69.2638 123.453C68.6142 121.855 67.3946 120.556 65.8418 119.807Z" fill="#3F3D56"/>
<path d="M85.3466 107.047C95.7833 107.047 104.244 98.5808 104.244 88.1371C104.244 77.6934 95.7833 69.2271 85.3466 69.2271C74.9098 69.2271 66.4492 77.6934 66.4492 88.1371C66.4492 98.5808 74.9098 107.047 85.3466 107.047Z" fill="#FFB8B8"/>
<path d="M111.944 114.995C111.836 114.895 111.728 114.787 111.613 114.695C110.296 113.506 108.737 112.618 107.043 112.09C105.35 111.562 103.562 111.408 101.803 111.638L66.9797 116.05C63.7897 116.445 60.879 118.068 58.8651 120.575C56.8512 123.082 55.8926 126.275 56.1927 129.477C56.6698 134.852 57.4392 141.635 58.6703 148.533H113.683L115.706 125.004C115.869 123.16 115.615 121.303 114.964 119.571C114.313 117.838 113.281 116.275 111.944 114.995Z" fill="#3F3D56"/>
<path d="M63.5117 86.282H70.986L74.2834 77.0429L74.9427 86.282H78.5151L80.4386 80.8925L80.8233 86.282H107.368C107.368 80.9729 105.26 75.8813 101.509 72.1272C97.757 68.3731 92.6687 66.264 87.3632 66.264H83.5162C78.2107 66.264 73.1225 68.3731 69.3709 72.1272C65.6193 75.8813 63.5117 80.9729 63.5117 86.282Z" fill="#2F2E41"/>
<path d="M382.594 181.888V11.0078C382.597 8.08941 383.757 5.29143 385.819 3.22777C387.881 1.16411 390.678 0.00328707 393.594 0H680.161C683.035 0.003283 685.79 1.14715 687.822 3.18065C689.854 5.21414 690.997 7.97119 691 10.8469V181.888C690.996 185.664 689.495 189.285 686.827 191.955C684.158 194.625 680.54 196.127 676.766 196.131H396.828C393.054 196.127 389.436 194.625 386.767 191.955C384.099 189.285 382.598 185.664 382.594 181.888Z" fill="white"/>
<path d="M382.594 181.888V11.0078C382.597 8.08941 383.757 5.29143 385.819 3.22777C387.881 1.16411 390.678 0.00328707 393.594 0H680.161C683.035 0.003283 685.79 1.14715 687.822 3.18065C689.854 5.21414 690.997 7.97119 691 10.8469V181.888C690.996 185.664 689.495 189.285 686.827 191.955C684.158 194.625 680.54 196.127 676.766 196.131H396.828C393.054 196.127 389.436 194.625 386.767 191.955C384.099 189.285 382.598 185.664 382.594 181.888ZM393.594 3.07968C391.493 3.08204 389.48 3.91808 387.994 5.40439C386.509 6.8907 385.674 8.9059 385.671 11.0078V181.888C385.675 184.848 386.851 187.685 388.943 189.778C391.034 191.871 393.87 193.048 396.828 193.052H676.766C679.724 193.048 682.56 191.871 684.651 189.778C686.743 187.685 687.919 184.848 687.923 181.888V10.8469C687.92 8.78771 687.102 6.81348 685.647 5.35735C684.192 3.90122 682.219 3.08209 680.161 3.07968H393.594Z" fill="#E6E6E6"/>
<path d="M554.73 144.357V51.7741C554.733 49.5287 555.625 47.376 557.212 45.7883C558.799 44.2006 560.95 43.3075 563.194 43.3049H647.074C649.318 43.3075 651.469 44.2006 653.056 45.7883C654.643 47.376 655.535 49.5287 655.538 51.7741V144.357C655.54 144.727 655.516 145.097 655.465 145.463C655.194 147.499 654.194 149.367 652.651 150.721C651.108 152.075 649.126 152.823 647.074 152.826H563.194C560.95 152.824 558.799 151.931 557.212 150.343C555.625 148.755 554.733 146.602 554.73 144.357ZM563.194 47.9245C562.174 47.9256 561.196 48.3316 560.475 49.0533C559.754 49.775 559.348 50.7534 559.347 51.7741V144.357C559.348 145.378 559.754 146.356 560.475 147.078C561.196 147.8 562.174 148.206 563.194 148.207H647.074C648.012 148.204 648.917 147.86 649.619 147.239C650.322 146.617 650.774 145.761 650.892 144.83C650.913 144.674 650.923 144.515 650.921 144.357V51.7741C650.92 50.7534 650.514 49.775 649.793 49.0533C649.072 48.3316 648.094 47.9256 647.074 47.9245H563.194Z" fill="#E6E6E6"/>
<path d="M418.057 116.563C418.059 114.93 418.708 113.364 419.862 112.21C421.015 111.055 422.58 110.405 424.212 110.404H525.773C527.406 110.404 528.971 111.052 530.126 112.208C531.28 113.363 531.928 114.929 531.928 116.563C531.928 118.197 531.28 119.763 530.126 120.918C528.971 122.073 527.406 122.722 525.773 122.722H424.212C422.58 122.72 421.015 122.071 419.862 120.916C418.708 119.762 418.059 118.196 418.057 116.563Z" fill="#E6E6E6"/>
<path d="M418.057 90.3856C418.059 88.7526 418.708 87.187 419.862 86.0323C421.015 84.8776 422.58 84.2281 424.212 84.2262H479.609C481.241 84.2262 482.807 84.8751 483.961 86.0302C485.116 87.1853 485.764 88.752 485.764 90.3856C485.764 92.0191 485.116 93.5858 483.961 94.7409C482.807 95.896 481.241 96.5449 479.609 96.5449H424.212C422.58 96.5431 421.015 95.8935 419.862 94.7388C418.708 93.5841 418.059 92.0186 418.057 90.3856Z" fill="#E6E6E6"/>
<path d="M584.404 79.2832C589.798 89.8955 594.049 100.841 605.947 100.841C611.661 100.841 617.14 98.5698 621.18 94.5269C625.22 90.484 627.49 85.0007 627.49 79.2832C627.49 73.5658 625.22 68.0825 621.18 64.0396C617.14 59.9967 611.661 57.7254 605.947 57.7254C593.855 57.5739 574.364 59.5306 584.404 79.2832Z" fill="#2F2E41"/>
<path d="M604.888 101.261C615.324 101.261 623.785 92.7946 623.785 82.3508C623.785 71.9071 615.324 63.4408 604.888 63.4408C594.451 63.4408 585.99 71.9071 585.99 82.3508C585.99 92.7946 594.451 101.261 604.888 101.261Z" fill="#B97A59"/>
<path d="M630.688 116.82C629.469 115.492 628.144 114.266 626.725 113.155C620.522 108.29 612.747 105.879 604.882 106.38C604.567 106.395 604.251 106.418 603.935 106.449C599.38 106.814 594.955 108.145 590.954 110.354C586.953 112.563 583.468 115.599 580.73 119.261C577.951 122.978 575.996 127.247 574.999 131.782C574.001 136.316 573.982 141.011 574.944 145.554C575.152 146.516 575.337 147.486 575.514 148.456H638.158L638.882 143.606C639.605 138.812 639.244 133.917 637.826 129.281C636.408 124.645 633.968 120.387 630.688 116.82Z" fill="#3F3D56"/>
<path d="M640.281 121.878C639.84 119.348 638.525 117.054 636.567 115.394C634.608 113.733 632.13 112.813 629.564 112.793C629.464 112.793 629.356 112.801 629.256 112.801C628.401 112.821 627.552 112.939 626.725 113.155C625.334 113.525 624.03 114.166 622.888 115.041C621.746 115.917 620.788 117.009 620.068 118.256C619.349 119.503 618.883 120.88 618.697 122.307C618.511 123.735 618.609 125.185 618.984 126.575L624.901 148.456H644.813L640.281 121.878Z" fill="#3F3D56"/>
<path d="M596.464 116.143C595.713 114.668 594.637 113.383 593.317 112.385C592.383 111.679 591.338 111.133 590.224 110.768C589.769 110.613 589.304 110.489 588.832 110.399C586.258 109.912 583.596 110.361 581.324 111.665C579.053 112.97 577.322 115.044 576.444 117.513L565.611 148.456H586.17L596.656 125.697C597.356 124.196 597.702 122.554 597.668 120.898C597.635 119.241 597.223 117.615 596.464 116.143Z" fill="#3F3D56"/>
<path d="M584.834 71.6638C589.152 74.6422 594.278 76.2272 599.522 76.2063C597.652 77.5043 595.522 78.3811 593.28 78.7763C600.253 80.273 607.46 80.3136 614.449 78.8953C616.003 78.646 617.502 78.1308 618.881 77.3722C619.568 76.9882 620.166 76.4638 620.638 75.8331C621.109 75.2024 621.442 74.4795 621.616 73.7115C622.081 71.0564 620.013 68.6442 617.865 67.0185C614.575 64.5674 610.782 62.8787 606.76 62.0745C602.738 61.2702 598.588 61.3706 594.61 62.3684C592.012 63.0403 589.41 64.1756 587.722 66.2632C586.035 68.3507 585.535 71.5691 587.143 73.7187L584.834 71.6638Z" fill="#2F2E41"/>
<path d="M485.469 307H205.531C201.757 306.996 198.139 305.494 195.471 302.824C192.802 300.153 191.301 296.533 191.297 292.756V121.716C191.3 118.84 192.443 116.083 194.475 114.049C196.507 112.016 199.262 110.872 202.136 110.869H488.703C491.62 110.872 494.416 112.033 496.478 114.096C498.54 116.16 499.7 118.958 499.703 121.876V292.756C499.699 296.533 498.198 300.153 495.53 302.824C492.861 305.494 489.243 306.996 485.469 307Z" fill="white"/>
<path d="M485.469 307H205.531C201.757 306.996 198.139 305.494 195.471 302.824C192.802 300.153 191.301 296.533 191.297 292.756V121.716C191.3 118.84 192.443 116.083 194.475 114.049C196.507 112.016 199.262 110.872 202.136 110.869H488.703C491.62 110.872 494.416 112.033 496.478 114.096C498.54 116.16 499.7 118.958 499.703 121.876V292.756C499.699 296.533 498.198 300.153 495.53 302.824C492.861 305.494 489.243 306.996 485.469 307ZM202.136 113.948C200.078 113.951 198.105 114.77 196.65 116.226C195.195 117.682 194.377 119.656 194.374 121.716V292.756C194.378 295.716 195.554 298.554 197.646 300.647C199.737 302.74 202.573 303.917 205.531 303.92H485.469C488.427 303.917 491.263 302.74 493.354 300.647C495.446 298.554 496.622 295.716 496.626 292.756V121.876C496.623 119.775 495.788 117.759 494.303 116.273C492.817 114.787 490.804 113.951 488.703 113.948H202.136Z" fill="#3F3D56"/>
<path d="M319.104 263.695H235.223C233.171 263.692 231.19 262.944 229.647 261.59C228.104 260.236 227.104 258.368 226.833 256.332C226.782 255.966 226.758 255.596 226.76 255.226V162.643C226.762 160.397 227.655 158.245 229.242 156.657C230.828 155.069 232.979 154.176 235.223 154.174H319.104C321.348 154.176 323.499 155.069 325.086 156.657C326.672 158.245 327.565 160.397 327.567 162.643V255.226C327.565 257.471 326.672 259.624 325.086 261.212C323.499 262.799 321.348 263.692 319.104 263.695ZM235.223 158.793C234.203 158.794 233.226 159.2 232.504 159.922C231.783 160.644 231.378 161.622 231.376 162.643V255.226C231.375 255.384 231.384 255.542 231.406 255.699C231.523 256.63 231.976 257.486 232.678 258.107C233.381 258.729 234.286 259.073 235.223 259.075H319.104C320.124 259.074 321.101 258.668 321.823 257.947C322.544 257.225 322.95 256.246 322.951 255.226V162.643C322.95 161.622 322.544 160.644 321.823 159.922C321.101 159.2 320.124 158.794 319.104 158.793H235.223Z" fill="#E6E6E6"/>
<path d="M275.946 171.099C270.485 168.558 263.781 167.724 258.225 170.086C252.669 172.448 248.881 178.503 250.678 183.861C251.492 186.29 253.347 188.679 252.625 191.133C252.068 193.021 250.128 194.268 248.222 195.155C246.316 196.041 244.231 196.786 242.852 198.282C241.474 199.777 241.187 202.351 242.909 203.51C243.476 203.892 244.185 204.074 244.735 204.476C245.204 204.857 245.542 205.375 245.703 205.958C245.863 206.541 245.838 207.159 245.631 207.727C245.172 208.869 244.415 209.867 243.437 210.615C241.483 212.302 238.899 214.232 239.506 216.627C239.731 217.267 240.108 217.843 240.603 218.306C241.098 218.77 241.698 219.107 242.351 219.289C243.707 219.681 245.115 219.866 246.526 219.841L304.205 221.659C306.109 221.802 308.024 221.695 309.9 221.34C310.812 221.174 311.68 220.821 312.45 220.304C313.219 219.786 313.874 219.116 314.373 218.334C315.477 216.288 314.752 213.768 313.388 211.857C312.024 209.947 310.094 208.44 308.498 206.686C306.903 204.932 305.598 202.742 305.879 200.475C306.104 198.66 307.301 197.091 308.159 195.442C309.018 193.793 309.517 191.732 308.405 190.215C306.837 188.077 303.075 188.27 301.293 186.278C299.948 184.775 300.208 182.611 300.074 180.672C299.753 176.009 296.526 171.605 291.934 169.56C289.598 168.557 287.058 168.124 284.523 168.297C281.987 168.47 279.529 169.243 277.351 170.554L275.946 171.099Z" fill="#2F2E41"/>
<path d="M278.079 221.211C288.516 221.211 296.976 212.745 296.976 202.301C296.976 191.858 288.516 183.391 278.079 183.391C267.642 183.391 259.182 191.858 259.182 202.301C259.182 212.745 267.642 221.211 278.079 221.211Z" fill="#B97A59"/>
<path d="M302.889 245.633C302.87 242.318 301.953 239.071 300.235 236.237C298.517 233.403 296.062 231.089 293.133 229.541C292.895 229.41 292.648 229.295 292.402 229.179C290.276 228.171 287.974 227.585 285.624 227.455L267.635 226.446C265.095 226.301 262.552 226.692 260.172 227.593C259.592 227.809 259.025 228.056 258.471 228.332C256.733 229.189 255.143 230.32 253.763 231.682C251.945 233.477 250.522 235.634 249.587 238.013C248.651 240.392 248.223 242.94 248.331 245.494L248.654 253.124L250.916 258.998H301.212C301.836 258.242 302.377 257.421 302.828 256.55C303.68 254.859 304.13 252.993 304.14 251.098C304.151 249.204 303.723 247.333 302.889 245.633Z" fill="#3F3D56"/>
<path d="M301.659 235.516C300.838 233.734 299.552 232.207 297.935 231.096C296.769 230.297 295.46 229.727 294.08 229.418C293.528 229.296 292.967 229.217 292.403 229.179C291.292 229.104 290.176 229.2 289.095 229.464C287.48 229.866 285.977 230.63 284.7 231.699C283.424 232.767 282.406 234.112 281.725 235.631C281.044 237.151 280.717 238.805 280.769 240.47C280.821 242.134 281.25 243.766 282.024 245.24L288.941 258.344L289.287 258.998H312.516L301.659 235.516Z" fill="#3F3D56"/>
<path d="M263.643 228.686C262.555 228.132 261.382 227.763 260.173 227.593C259.273 227.465 258.361 227.452 257.457 227.555C255.159 227.815 253.001 228.796 251.293 230.357C249.585 231.918 248.414 233.98 247.947 236.247L243.262 258.998H261.589L265.013 257.597L269.275 241.229C269.895 238.809 269.676 236.25 268.652 233.971C267.629 231.693 265.863 229.829 263.643 228.686Z" fill="#3F3D56"/>
<path d="M258.746 199.613C264.714 199.133 269.669 193.168 269.048 187.209C268.978 189.665 269.813 192.061 271.393 193.941C272.974 195.822 275.19 197.055 277.62 197.407C280.358 197.709 283.359 196.88 285.741 198.262C288.381 199.793 289.225 203.51 291.974 204.832C294.631 206.109 298.005 204.367 299.317 201.726C300.63 199.086 300.307 195.913 299.438 193.095C298.197 189.077 295.939 185.448 292.882 182.562C289.825 179.676 286.073 177.63 281.992 176.625C277.911 175.619 273.639 175.687 269.593 176.823C265.546 177.959 261.861 180.123 258.898 183.106C256.389 185.631 254.396 188.85 254.073 192.397C253.75 195.944 255.394 199.793 258.577 201.386L258.746 199.613Z" fill="#2F2E41"/>
<path d="M458.086 233.591H356.524C354.892 233.591 353.326 232.942 352.172 231.787C351.018 230.632 350.369 229.065 350.369 227.431C350.369 225.798 351.018 224.231 352.172 223.076C353.326 221.921 354.892 221.272 356.524 221.272H458.086C459.718 221.272 461.284 221.921 462.438 223.076C463.592 224.231 464.241 225.798 464.241 227.431C464.241 229.065 463.592 230.632 462.438 231.787C461.284 232.942 459.718 233.591 458.086 233.591Z" fill="#E6E6E6"/>
<path d="M411.921 207.414H356.524C354.892 207.414 353.326 206.765 352.172 205.61C351.018 204.454 350.369 202.888 350.369 201.254C350.369 199.621 351.018 198.054 352.172 196.899C353.326 195.744 354.892 195.095 356.524 195.095H411.921C413.554 195.095 415.12 195.744 416.274 196.899C417.428 198.054 418.077 199.621 418.077 201.254C418.077 202.888 417.428 204.454 416.274 205.61C415.12 206.765 413.554 207.414 411.921 207.414Z" fill="#FFCE3B"/>
<path d="M441.645 252.395C436.268 252.405 431.116 254.549 427.318 258.357C423.52 262.164 421.387 267.324 421.387 272.704C421.387 278.084 423.52 283.244 427.318 287.052C431.116 290.859 436.268 293.003 441.644 293.013H441.645C447.021 293.003 452.173 290.859 455.971 287.052C459.769 283.244 461.902 278.084 461.902 272.704C461.902 267.325 459.769 262.165 455.971 258.357C452.173 254.549 447.021 252.405 441.645 252.395Z" fill="#FFCE3B"/>
<path d="M439.72 281.139C439.186 281.14 438.666 280.967 438.238 280.646L438.212 280.626L432.631 276.354C432.11 275.953 431.769 275.361 431.683 274.709C431.598 274.057 431.774 273.398 432.174 272.876C432.574 272.354 433.164 272.012 433.816 271.926C434.467 271.839 435.127 272.015 435.649 272.414L439.264 275.188L447.806 264.036C448.004 263.778 448.252 263.561 448.533 263.398C448.815 263.235 449.127 263.129 449.449 263.086C449.772 263.043 450.1 263.065 450.415 263.149C450.729 263.233 451.024 263.379 451.282 263.577L451.283 263.577L451.23 263.651L451.285 263.577C451.806 263.978 452.147 264.57 452.233 265.222C452.319 265.874 452.143 266.534 451.743 267.056L441.695 280.168C441.463 280.47 441.164 280.714 440.822 280.882C440.48 281.05 440.103 281.137 439.722 281.136L439.72 281.139Z" fill="white"/>
</g>
<defs>
<clipPath id="clip0">
<rect width="691" height="307" fill="white"/>
</clipPath>
</defs>
</svg>
